<mxfile host="app.diagrams.net" modified="2021-08-31T11:38:10.640Z" agent="5.0 (Windows NT 10.0; Win64; x64) AppleWebKit/537.36 (KHTML, like Gecko) Chrome/92.0.4515.159 Safari/537.36" etag="dCsq3iytn5enLLx3Edgg" version="15.0.3" type="github">
  <diagram id="R2lEEEUBdFMjLlhIrx00" name="Page-1">
    <mxGraphModel dx="1422" dy="1886" grid="1" gridSize="10" guides="1" tooltips="1" connect="1" arrows="1" fold="1" page="1" pageScale="1" pageWidth="850" pageHeight="1100" math="0" shadow="0" extFonts="Permanent Marker^https://fonts.googleapis.com/css?family=Permanent+Marker">
      <root>
        <mxCell id="0" />
        <mxCell id="1" parent="0" />
        <mxCell id="pgB8sEjVDIbPxb2HmiM6-13" style="edgeStyle=orthogonalEdgeStyle;rounded=0;orthogonalLoop=1;jettySize=auto;html=1;entryX=0;entryY=0.5;entryDx=0;entryDy=0;" parent="1" source="pgB8sEjVDIbPxb2HmiM6-1" target="pgB8sEjVDIbPxb2HmiM6-2" edge="1">
          <mxGeometry relative="1" as="geometry" />
        </mxCell>
        <mxCell id="pgB8sEjVDIbPxb2HmiM6-14" style="edgeStyle=orthogonalEdgeStyle;rounded=0;orthogonalLoop=1;jettySize=auto;html=1;entryX=0;entryY=0.5;entryDx=0;entryDy=0;" parent="1" source="pgB8sEjVDIbPxb2HmiM6-1" target="pgB8sEjVDIbPxb2HmiM6-3" edge="1">
          <mxGeometry relative="1" as="geometry" />
        </mxCell>
        <mxCell id="pgB8sEjVDIbPxb2HmiM6-15" style="edgeStyle=orthogonalEdgeStyle;rounded=0;orthogonalLoop=1;jettySize=auto;html=1;entryX=0;entryY=0.5;entryDx=0;entryDy=0;" parent="1" source="pgB8sEjVDIbPxb2HmiM6-1" target="pgB8sEjVDIbPxb2HmiM6-4" edge="1">
          <mxGeometry relative="1" as="geometry" />
        </mxCell>
        <mxCell id="pgB8sEjVDIbPxb2HmiM6-16" style="edgeStyle=orthogonalEdgeStyle;rounded=0;orthogonalLoop=1;jettySize=auto;html=1;entryX=0;entryY=0.5;entryDx=0;entryDy=0;" parent="1" source="pgB8sEjVDIbPxb2HmiM6-1" target="pgB8sEjVDIbPxb2HmiM6-5" edge="1">
          <mxGeometry relative="1" as="geometry" />
        </mxCell>
        <mxCell id="pgB8sEjVDIbPxb2HmiM6-17" style="edgeStyle=orthogonalEdgeStyle;rounded=0;orthogonalLoop=1;jettySize=auto;html=1;entryX=0;entryY=0.5;entryDx=0;entryDy=0;" parent="1" source="pgB8sEjVDIbPxb2HmiM6-1" target="pgB8sEjVDIbPxb2HmiM6-6" edge="1">
          <mxGeometry relative="1" as="geometry" />
        </mxCell>
        <mxCell id="pgB8sEjVDIbPxb2HmiM6-18" style="edgeStyle=orthogonalEdgeStyle;rounded=0;orthogonalLoop=1;jettySize=auto;html=1;entryX=0;entryY=0.5;entryDx=0;entryDy=0;" parent="1" source="pgB8sEjVDIbPxb2HmiM6-1" target="pgB8sEjVDIbPxb2HmiM6-8" edge="1">
          <mxGeometry relative="1" as="geometry" />
        </mxCell>
        <mxCell id="pgB8sEjVDIbPxb2HmiM6-19" style="edgeStyle=orthogonalEdgeStyle;rounded=0;orthogonalLoop=1;jettySize=auto;html=1;entryX=0;entryY=0.5;entryDx=0;entryDy=0;" parent="1" source="pgB8sEjVDIbPxb2HmiM6-1" target="pgB8sEjVDIbPxb2HmiM6-9" edge="1">
          <mxGeometry relative="1" as="geometry" />
        </mxCell>
        <mxCell id="pgB8sEjVDIbPxb2HmiM6-20" style="edgeStyle=orthogonalEdgeStyle;rounded=0;orthogonalLoop=1;jettySize=auto;html=1;entryX=0;entryY=0.5;entryDx=0;entryDy=0;" parent="1" source="pgB8sEjVDIbPxb2HmiM6-1" target="pgB8sEjVDIbPxb2HmiM6-10" edge="1">
          <mxGeometry relative="1" as="geometry" />
        </mxCell>
        <mxCell id="pgB8sEjVDIbPxb2HmiM6-21" style="edgeStyle=orthogonalEdgeStyle;rounded=0;orthogonalLoop=1;jettySize=auto;html=1;entryX=0;entryY=0.5;entryDx=0;entryDy=0;" parent="1" source="pgB8sEjVDIbPxb2HmiM6-1" target="pgB8sEjVDIbPxb2HmiM6-11" edge="1">
          <mxGeometry relative="1" as="geometry" />
        </mxCell>
        <mxCell id="pgB8sEjVDIbPxb2HmiM6-22" style="edgeStyle=orthogonalEdgeStyle;rounded=0;orthogonalLoop=1;jettySize=auto;html=1;entryX=0;entryY=0.5;entryDx=0;entryDy=0;" parent="1" source="pgB8sEjVDIbPxb2HmiM6-1" target="pgB8sEjVDIbPxb2HmiM6-12" edge="1">
          <mxGeometry relative="1" as="geometry" />
        </mxCell>
        <mxCell id="pgB8sEjVDIbPxb2HmiM6-1" value="Home" style="rounded=1;whiteSpace=wrap;html=1;" parent="1" vertex="1">
          <mxGeometry x="30" y="325" width="80" height="40" as="geometry" />
        </mxCell>
        <mxCell id="pgB8sEjVDIbPxb2HmiM6-3" value="Header&lt;br&gt;" style="rounded=1;whiteSpace=wrap;html=1;" parent="1" vertex="1">
          <mxGeometry x="150" y="160" width="110" height="30" as="geometry" />
        </mxCell>
        <mxCell id="pgB8sEjVDIbPxb2HmiM6-4" value="Upcoming Events" style="rounded=1;whiteSpace=wrap;html=1;" parent="1" vertex="1">
          <mxGeometry x="150" y="200" width="110" height="30" as="geometry" />
        </mxCell>
        <mxCell id="pgB8sEjVDIbPxb2HmiM6-69" style="edgeStyle=orthogonalEdgeStyle;rounded=0;orthogonalLoop=1;jettySize=auto;html=1;entryX=0;entryY=0.5;entryDx=0;entryDy=0;" parent="1" source="pgB8sEjVDIbPxb2HmiM6-5" target="pgB8sEjVDIbPxb2HmiM6-55" edge="1">
          <mxGeometry relative="1" as="geometry" />
        </mxCell>
        <mxCell id="pgB8sEjVDIbPxb2HmiM6-71" style="edgeStyle=orthogonalEdgeStyle;rounded=0;orthogonalLoop=1;jettySize=auto;html=1;entryX=0;entryY=0.5;entryDx=0;entryDy=0;" parent="1" source="pgB8sEjVDIbPxb2HmiM6-5" target="pgB8sEjVDIbPxb2HmiM6-56" edge="1">
          <mxGeometry relative="1" as="geometry" />
        </mxCell>
        <mxCell id="pgB8sEjVDIbPxb2HmiM6-72" style="edgeStyle=orthogonalEdgeStyle;rounded=0;orthogonalLoop=1;jettySize=auto;html=1;entryX=0;entryY=0.5;entryDx=0;entryDy=0;" parent="1" source="pgB8sEjVDIbPxb2HmiM6-5" target="pgB8sEjVDIbPxb2HmiM6-62" edge="1">
          <mxGeometry relative="1" as="geometry" />
        </mxCell>
        <mxCell id="pgB8sEjVDIbPxb2HmiM6-5" value="Blog" style="rounded=1;whiteSpace=wrap;html=1;" parent="1" vertex="1">
          <mxGeometry x="150" y="240" width="110" height="30" as="geometry" />
        </mxCell>
        <mxCell id="pgB8sEjVDIbPxb2HmiM6-6" value="Become Our Member" style="rounded=1;whiteSpace=wrap;html=1;" parent="1" vertex="1">
          <mxGeometry x="150" y="280" width="110" height="40" as="geometry" />
        </mxCell>
        <mxCell id="pgB8sEjVDIbPxb2HmiM6-8" value="Our Members" style="rounded=1;whiteSpace=wrap;html=1;" parent="1" vertex="1">
          <mxGeometry x="150" y="330" width="110" height="30" as="geometry" />
        </mxCell>
        <mxCell id="pgB8sEjVDIbPxb2HmiM6-9" value="Testimonials" style="rounded=1;whiteSpace=wrap;html=1;" parent="1" vertex="1">
          <mxGeometry x="150" y="370" width="110" height="30" as="geometry" />
        </mxCell>
        <mxCell id="pgB8sEjVDIbPxb2HmiM6-10" value="Member in Competitions" style="rounded=1;whiteSpace=wrap;html=1;" parent="1" vertex="1">
          <mxGeometry x="150" y="410" width="110" height="40" as="geometry" />
        </mxCell>
        <mxCell id="pgB8sEjVDIbPxb2HmiM6-11" value="Leaderboard" style="rounded=1;whiteSpace=wrap;html=1;" parent="1" vertex="1">
          <mxGeometry x="150" y="460" width="110" height="30" as="geometry" />
        </mxCell>
        <mxCell id="pgB8sEjVDIbPxb2HmiM6-12" value="Footer" style="rounded=1;whiteSpace=wrap;html=1;" parent="1" vertex="1">
          <mxGeometry x="150" y="500" width="110" height="30" as="geometry" />
        </mxCell>
        <mxCell id="pgB8sEjVDIbPxb2HmiM6-46" style="edgeStyle=orthogonalEdgeStyle;rounded=0;orthogonalLoop=1;jettySize=auto;html=1;entryX=0;entryY=0.5;entryDx=0;entryDy=0;" parent="1" source="pgB8sEjVDIbPxb2HmiM6-24" target="pgB8sEjVDIbPxb2HmiM6-39" edge="1">
          <mxGeometry relative="1" as="geometry" />
        </mxCell>
        <mxCell id="pgB8sEjVDIbPxb2HmiM6-47" style="edgeStyle=orthogonalEdgeStyle;rounded=0;orthogonalLoop=1;jettySize=auto;html=1;entryX=0;entryY=0.5;entryDx=0;entryDy=0;" parent="1" source="pgB8sEjVDIbPxb2HmiM6-24" target="pgB8sEjVDIbPxb2HmiM6-40" edge="1">
          <mxGeometry relative="1" as="geometry" />
        </mxCell>
        <mxCell id="pgB8sEjVDIbPxb2HmiM6-48" style="edgeStyle=orthogonalEdgeStyle;rounded=0;orthogonalLoop=1;jettySize=auto;html=1;entryX=0;entryY=0.5;entryDx=0;entryDy=0;" parent="1" source="pgB8sEjVDIbPxb2HmiM6-24" target="pgB8sEjVDIbPxb2HmiM6-41" edge="1">
          <mxGeometry relative="1" as="geometry" />
        </mxCell>
        <mxCell id="pgB8sEjVDIbPxb2HmiM6-49" style="edgeStyle=orthogonalEdgeStyle;rounded=0;orthogonalLoop=1;jettySize=auto;html=1;entryX=0;entryY=0.5;entryDx=0;entryDy=0;" parent="1" source="pgB8sEjVDIbPxb2HmiM6-24" target="pgB8sEjVDIbPxb2HmiM6-42" edge="1">
          <mxGeometry relative="1" as="geometry" />
        </mxCell>
        <mxCell id="pgB8sEjVDIbPxb2HmiM6-50" style="edgeStyle=orthogonalEdgeStyle;rounded=0;orthogonalLoop=1;jettySize=auto;html=1;entryX=0;entryY=0.5;entryDx=0;entryDy=0;" parent="1" source="pgB8sEjVDIbPxb2HmiM6-24" target="pgB8sEjVDIbPxb2HmiM6-43" edge="1">
          <mxGeometry relative="1" as="geometry" />
        </mxCell>
        <mxCell id="pgB8sEjVDIbPxb2HmiM6-51" value="" style="group" parent="1" vertex="1" connectable="0">
          <mxGeometry x="470" y="-340" width="110" height="230" as="geometry" />
        </mxCell>
        <mxCell id="pgB8sEjVDIbPxb2HmiM6-38" value="Header" style="rounded=1;whiteSpace=wrap;html=1;" parent="pgB8sEjVDIbPxb2HmiM6-51" vertex="1">
          <mxGeometry width="110" height="30" as="geometry" />
        </mxCell>
        <mxCell id="pgB8sEjVDIbPxb2HmiM6-39" value="Description" style="rounded=1;whiteSpace=wrap;html=1;" parent="pgB8sEjVDIbPxb2HmiM6-51" vertex="1">
          <mxGeometry y="40" width="110" height="30" as="geometry" />
        </mxCell>
        <mxCell id="pgB8sEjVDIbPxb2HmiM6-40" value="Vision &amp;amp; Mission" style="rounded=1;whiteSpace=wrap;html=1;" parent="pgB8sEjVDIbPxb2HmiM6-51" vertex="1">
          <mxGeometry y="80" width="110" height="30" as="geometry" />
        </mxCell>
        <mxCell id="pgB8sEjVDIbPxb2HmiM6-41" value="Organigram" style="rounded=1;whiteSpace=wrap;html=1;" parent="pgB8sEjVDIbPxb2HmiM6-51" vertex="1">
          <mxGeometry y="120" width="110" height="30" as="geometry" />
        </mxCell>
        <mxCell id="pgB8sEjVDIbPxb2HmiM6-42" value="Our Achievements" style="rounded=1;whiteSpace=wrap;html=1;" parent="pgB8sEjVDIbPxb2HmiM6-51" vertex="1">
          <mxGeometry y="160" width="110" height="30" as="geometry" />
        </mxCell>
        <mxCell id="pgB8sEjVDIbPxb2HmiM6-43" value="Footer" style="rounded=1;whiteSpace=wrap;html=1;" parent="pgB8sEjVDIbPxb2HmiM6-51" vertex="1">
          <mxGeometry y="200" width="110" height="30" as="geometry" />
        </mxCell>
        <mxCell id="pgB8sEjVDIbPxb2HmiM6-73" style="edgeStyle=orthogonalEdgeStyle;rounded=0;orthogonalLoop=1;jettySize=auto;html=1;entryX=0.5;entryY=0;entryDx=0;entryDy=0;" parent="1" source="pgB8sEjVDIbPxb2HmiM6-23" target="pgB8sEjVDIbPxb2HmiM6-1" edge="1">
          <mxGeometry relative="1" as="geometry" />
        </mxCell>
        <mxCell id="pgB8sEjVDIbPxb2HmiM6-23" value="Home" style="rounded=1;whiteSpace=wrap;html=1;" parent="1" vertex="1">
          <mxGeometry x="300" y="-280" width="110" height="30" as="geometry" />
        </mxCell>
        <mxCell id="pgB8sEjVDIbPxb2HmiM6-52" style="edgeStyle=orthogonalEdgeStyle;rounded=0;orthogonalLoop=1;jettySize=auto;html=1;entryX=0;entryY=0.5;entryDx=0;entryDy=0;" parent="1" source="pgB8sEjVDIbPxb2HmiM6-24" target="pgB8sEjVDIbPxb2HmiM6-38" edge="1">
          <mxGeometry relative="1" as="geometry" />
        </mxCell>
        <mxCell id="pgB8sEjVDIbPxb2HmiM6-24" value="About Us" style="rounded=1;whiteSpace=wrap;html=1;" parent="1" vertex="1">
          <mxGeometry x="300" y="-240" width="110" height="30" as="geometry" />
        </mxCell>
        <mxCell id="pgB8sEjVDIbPxb2HmiM6-33" style="edgeStyle=orthogonalEdgeStyle;rounded=0;orthogonalLoop=1;jettySize=auto;html=1;entryX=0;entryY=0.5;entryDx=0;entryDy=0;" parent="1" source="pgB8sEjVDIbPxb2HmiM6-2" target="pgB8sEjVDIbPxb2HmiM6-23" edge="1">
          <mxGeometry relative="1" as="geometry" />
        </mxCell>
        <mxCell id="pgB8sEjVDIbPxb2HmiM6-32" style="edgeStyle=orthogonalEdgeStyle;rounded=0;orthogonalLoop=1;jettySize=auto;html=1;entryX=0;entryY=0.5;entryDx=0;entryDy=0;" parent="1" source="pgB8sEjVDIbPxb2HmiM6-2" target="pgB8sEjVDIbPxb2HmiM6-24" edge="1">
          <mxGeometry relative="1" as="geometry" />
        </mxCell>
        <mxCell id="pgB8sEjVDIbPxb2HmiM6-53" value="Direct to Petrolida Website" style="rounded=1;whiteSpace=wrap;html=1;" parent="1" vertex="1">
          <mxGeometry x="470" y="-100" width="110" height="50" as="geometry" />
        </mxCell>
        <mxCell id="pgB8sEjVDIbPxb2HmiM6-54" style="edgeStyle=orthogonalEdgeStyle;rounded=0;orthogonalLoop=1;jettySize=auto;html=1;entryX=0;entryY=0.5;entryDx=0;entryDy=0;" parent="1" source="pgB8sEjVDIbPxb2HmiM6-25" target="pgB8sEjVDIbPxb2HmiM6-53" edge="1">
          <mxGeometry relative="1" as="geometry" />
        </mxCell>
        <mxCell id="pgB8sEjVDIbPxb2HmiM6-2" value="Navbar" style="rounded=1;whiteSpace=wrap;html=1;" parent="1" vertex="1">
          <mxGeometry x="150" y="-110" width="110" height="30" as="geometry" />
        </mxCell>
        <mxCell id="pgB8sEjVDIbPxb2HmiM6-25" value="Petrolida" style="rounded=1;whiteSpace=wrap;html=1;" parent="1" vertex="1">
          <mxGeometry x="300" y="-90" width="110" height="30" as="geometry" />
        </mxCell>
        <mxCell id="pgB8sEjVDIbPxb2HmiM6-26" value="Events" style="rounded=1;whiteSpace=wrap;html=1;" parent="1" vertex="1">
          <mxGeometry x="300" y="-50" width="110" height="30" as="geometry" />
        </mxCell>
        <mxCell id="pgB8sEjVDIbPxb2HmiM6-27" value="Blog" style="rounded=1;whiteSpace=wrap;html=1;" parent="1" vertex="1">
          <mxGeometry x="300" y="-10" width="110" height="30" as="geometry" />
        </mxCell>
        <mxCell id="pgB8sEjVDIbPxb2HmiM6-28" value="Merch" style="rounded=1;whiteSpace=wrap;html=1;" parent="1" vertex="1">
          <mxGeometry x="300" y="30" width="110" height="30" as="geometry" />
        </mxCell>
        <mxCell id="pgB8sEjVDIbPxb2HmiM6-77" style="edgeStyle=orthogonalEdgeStyle;rounded=0;orthogonalLoop=1;jettySize=auto;html=1;entryX=0;entryY=0.5;entryDx=0;entryDy=0;" parent="1" source="pgB8sEjVDIbPxb2HmiM6-29" target="pgB8sEjVDIbPxb2HmiM6-76" edge="1">
          <mxGeometry relative="1" as="geometry" />
        </mxCell>
        <mxCell id="pgB8sEjVDIbPxb2HmiM6-78" style="edgeStyle=orthogonalEdgeStyle;rounded=0;orthogonalLoop=1;jettySize=auto;html=1;entryX=0;entryY=0.5;entryDx=0;entryDy=0;" parent="1" source="pgB8sEjVDIbPxb2HmiM6-29" target="pgB8sEjVDIbPxb2HmiM6-74" edge="1">
          <mxGeometry relative="1" as="geometry" />
        </mxCell>
        <mxCell id="pgB8sEjVDIbPxb2HmiM6-29" value="Login" style="rounded=1;whiteSpace=wrap;html=1;" parent="1" vertex="1">
          <mxGeometry x="300" y="70" width="110" height="30" as="geometry" />
        </mxCell>
        <mxCell id="pgB8sEjVDIbPxb2HmiM6-31" style="edgeStyle=orthogonalEdgeStyle;rounded=0;orthogonalLoop=1;jettySize=auto;html=1;entryX=0;entryY=0.5;entryDx=0;entryDy=0;" parent="1" source="pgB8sEjVDIbPxb2HmiM6-2" target="pgB8sEjVDIbPxb2HmiM6-25" edge="1">
          <mxGeometry x="150" as="geometry" />
        </mxCell>
        <mxCell id="pgB8sEjVDIbPxb2HmiM6-30" style="edgeStyle=orthogonalEdgeStyle;rounded=0;orthogonalLoop=1;jettySize=auto;html=1;entryX=0;entryY=0.5;entryDx=0;entryDy=0;" parent="1" source="pgB8sEjVDIbPxb2HmiM6-2" target="pgB8sEjVDIbPxb2HmiM6-26" edge="1">
          <mxGeometry x="150" as="geometry" />
        </mxCell>
        <mxCell id="pgB8sEjVDIbPxb2HmiM6-34" style="edgeStyle=orthogonalEdgeStyle;rounded=0;orthogonalLoop=1;jettySize=auto;html=1;entryX=0;entryY=0.5;entryDx=0;entryDy=0;" parent="1" source="pgB8sEjVDIbPxb2HmiM6-2" target="pgB8sEjVDIbPxb2HmiM6-27" edge="1">
          <mxGeometry x="150" as="geometry" />
        </mxCell>
        <mxCell id="pgB8sEjVDIbPxb2HmiM6-35" style="edgeStyle=orthogonalEdgeStyle;rounded=0;orthogonalLoop=1;jettySize=auto;html=1;entryX=0;entryY=0.5;entryDx=0;entryDy=0;" parent="1" source="pgB8sEjVDIbPxb2HmiM6-2" target="pgB8sEjVDIbPxb2HmiM6-28" edge="1">
          <mxGeometry x="150" as="geometry" />
        </mxCell>
        <mxCell id="pgB8sEjVDIbPxb2HmiM6-36" style="edgeStyle=orthogonalEdgeStyle;rounded=0;orthogonalLoop=1;jettySize=auto;html=1;entryX=0;entryY=0.5;entryDx=0;entryDy=0;" parent="1" source="pgB8sEjVDIbPxb2HmiM6-2" target="pgB8sEjVDIbPxb2HmiM6-29" edge="1">
          <mxGeometry x="150" as="geometry" />
        </mxCell>
        <mxCell id="pgB8sEjVDIbPxb2HmiM6-55" value="Header" style="rounded=1;whiteSpace=wrap;html=1;" parent="1" vertex="1">
          <mxGeometry x="300" y="200" width="110" height="30" as="geometry" />
        </mxCell>
        <mxCell id="pgB8sEjVDIbPxb2HmiM6-62" value="Footer" style="rounded=1;whiteSpace=wrap;html=1;" parent="1" vertex="1">
          <mxGeometry x="300" y="280" width="110" height="30" as="geometry" />
        </mxCell>
        <mxCell id="pgB8sEjVDIbPxb2HmiM6-68" value="" style="group" parent="1" vertex="1" connectable="0">
          <mxGeometry x="300" y="150" width="260" height="190" as="geometry" />
        </mxCell>
        <mxCell id="pgB8sEjVDIbPxb2HmiM6-56" value="Article" style="rounded=1;whiteSpace=wrap;html=1;" parent="pgB8sEjVDIbPxb2HmiM6-68" vertex="1">
          <mxGeometry y="90" width="110" height="30" as="geometry" />
        </mxCell>
        <mxCell id="pgB8sEjVDIbPxb2HmiM6-57" value="Petroknowledge" style="rounded=1;whiteSpace=wrap;html=1;" parent="pgB8sEjVDIbPxb2HmiM6-68" vertex="1">
          <mxGeometry x="150" y="10" width="110" height="30" as="geometry" />
        </mxCell>
        <mxCell id="pgB8sEjVDIbPxb2HmiM6-58" value="Seize Your Sunday" style="rounded=1;whiteSpace=wrap;html=1;" parent="pgB8sEjVDIbPxb2HmiM6-68" vertex="1">
          <mxGeometry x="150" y="50" width="110" height="30" as="geometry" />
        </mxCell>
        <mxCell id="pgB8sEjVDIbPxb2HmiM6-59" value="Petronews" style="rounded=1;whiteSpace=wrap;html=1;" parent="pgB8sEjVDIbPxb2HmiM6-68" vertex="1">
          <mxGeometry x="150" y="90" width="110" height="30" as="geometry" />
        </mxCell>
        <mxCell id="pgB8sEjVDIbPxb2HmiM6-60" value="Fun Facts" style="rounded=1;whiteSpace=wrap;html=1;" parent="pgB8sEjVDIbPxb2HmiM6-68" vertex="1">
          <mxGeometry x="150" y="130" width="110" height="30" as="geometry" />
        </mxCell>
        <mxCell id="pgB8sEjVDIbPxb2HmiM6-61" value="Journalism" style="rounded=1;whiteSpace=wrap;html=1;" parent="pgB8sEjVDIbPxb2HmiM6-68" vertex="1">
          <mxGeometry x="150" y="170" width="110" height="30" as="geometry" />
        </mxCell>
        <mxCell id="pgB8sEjVDIbPxb2HmiM6-63" style="edgeStyle=orthogonalEdgeStyle;rounded=0;orthogonalLoop=1;jettySize=auto;html=1;entryX=0;entryY=0.5;entryDx=0;entryDy=0;" parent="pgB8sEjVDIbPxb2HmiM6-68" source="pgB8sEjVDIbPxb2HmiM6-56" target="pgB8sEjVDIbPxb2HmiM6-57" edge="1">
          <mxGeometry relative="1" as="geometry" />
        </mxCell>
        <mxCell id="pgB8sEjVDIbPxb2HmiM6-64" style="edgeStyle=orthogonalEdgeStyle;rounded=0;orthogonalLoop=1;jettySize=auto;html=1;entryX=0;entryY=0.5;entryDx=0;entryDy=0;" parent="pgB8sEjVDIbPxb2HmiM6-68" source="pgB8sEjVDIbPxb2HmiM6-56" target="pgB8sEjVDIbPxb2HmiM6-58" edge="1">
          <mxGeometry relative="1" as="geometry" />
        </mxCell>
        <mxCell id="pgB8sEjVDIbPxb2HmiM6-65" style="edgeStyle=orthogonalEdgeStyle;rounded=0;orthogonalLoop=1;jettySize=auto;html=1;entryX=0;entryY=0.5;entryDx=0;entryDy=0;" parent="pgB8sEjVDIbPxb2HmiM6-68" source="pgB8sEjVDIbPxb2HmiM6-56" target="pgB8sEjVDIbPxb2HmiM6-59" edge="1">
          <mxGeometry relative="1" as="geometry" />
        </mxCell>
        <mxCell id="pgB8sEjVDIbPxb2HmiM6-66" style="edgeStyle=orthogonalEdgeStyle;rounded=0;orthogonalLoop=1;jettySize=auto;html=1;entryX=0;entryY=0.5;entryDx=0;entryDy=0;" parent="pgB8sEjVDIbPxb2HmiM6-68" source="pgB8sEjVDIbPxb2HmiM6-56" target="pgB8sEjVDIbPxb2HmiM6-60" edge="1">
          <mxGeometry relative="1" as="geometry" />
        </mxCell>
        <mxCell id="pgB8sEjVDIbPxb2HmiM6-67" style="edgeStyle=orthogonalEdgeStyle;rounded=0;orthogonalLoop=1;jettySize=auto;html=1;entryX=0;entryY=0.5;entryDx=0;entryDy=0;" parent="pgB8sEjVDIbPxb2HmiM6-68" source="pgB8sEjVDIbPxb2HmiM6-56" target="pgB8sEjVDIbPxb2HmiM6-61" edge="1">
          <mxGeometry relative="1" as="geometry" />
        </mxCell>
        <mxCell id="pgB8sEjVDIbPxb2HmiM6-74" value="Login View" style="whiteSpace=wrap;html=1;rounded=1;" parent="1" vertex="1">
          <mxGeometry x="450" y="43.75" width="110" height="35" as="geometry" />
        </mxCell>
        <mxCell id="pgB8sEjVDIbPxb2HmiM6-82" style="edgeStyle=orthogonalEdgeStyle;rounded=0;orthogonalLoop=1;jettySize=auto;html=1;" parent="1" source="pgB8sEjVDIbPxb2HmiM6-76" target="pgB8sEjVDIbPxb2HmiM6-79" edge="1">
          <mxGeometry relative="1" as="geometry" />
        </mxCell>
        <mxCell id="pgB8sEjVDIbPxb2HmiM6-76" value="Sign Up" style="whiteSpace=wrap;html=1;rounded=1;" parent="1" vertex="1">
          <mxGeometry x="450" y="91.25" width="110" height="35" as="geometry" />
        </mxCell>
        <mxCell id="pgB8sEjVDIbPxb2HmiM6-227" style="edgeStyle=orthogonalEdgeStyle;rounded=0;orthogonalLoop=1;jettySize=auto;html=1;" parent="1" source="pgB8sEjVDIbPxb2HmiM6-79" target="pgB8sEjVDIbPxb2HmiM6-80" edge="1">
          <mxGeometry relative="1" as="geometry" />
        </mxCell>
        <mxCell id="pgB8sEjVDIbPxb2HmiM6-79" value="Benefit" style="whiteSpace=wrap;html=1;rounded=1;" parent="1" vertex="1">
          <mxGeometry x="590" y="91.25" width="110" height="35" as="geometry" />
        </mxCell>
        <mxCell id="pgB8sEjVDIbPxb2HmiM6-84" style="edgeStyle=orthogonalEdgeStyle;rounded=0;orthogonalLoop=1;jettySize=auto;html=1;entryX=0.5;entryY=0;entryDx=0;entryDy=0;" parent="1" source="pgB8sEjVDIbPxb2HmiM6-80" target="pgB8sEjVDIbPxb2HmiM6-81" edge="1">
          <mxGeometry relative="1" as="geometry" />
        </mxCell>
        <mxCell id="pgB8sEjVDIbPxb2HmiM6-80" value="Register" style="whiteSpace=wrap;html=1;rounded=1;" parent="1" vertex="1">
          <mxGeometry x="590" y="150" width="110" height="35" as="geometry" />
        </mxCell>
        <mxCell id="pgB8sEjVDIbPxb2HmiM6-81" value="Register View" style="whiteSpace=wrap;html=1;rounded=1;" parent="1" vertex="1">
          <mxGeometry x="590" y="220" width="110" height="35" as="geometry" />
        </mxCell>
        <mxCell id="pgB8sEjVDIbPxb2HmiM6-128" value="Users" style="shape=table;startSize=30;container=1;collapsible=1;childLayout=tableLayout;fixedRows=1;rowLines=0;fontStyle=1;align=center;resizeLast=1;" parent="1" vertex="1">
          <mxGeometry x="1100" y="-530" width="240" height="340" as="geometry">
            <mxRectangle x="590" y="300" width="90" height="30" as="alternateBounds" />
          </mxGeometry>
        </mxCell>
        <mxCell id="pgB8sEjVDIbPxb2HmiM6-129" value="" style="shape=partialRectangle;collapsible=0;dropTarget=0;pointerEvents=0;fillColor=none;top=0;left=0;bottom=1;right=0;points=[[0,0.5],[1,0.5]];portConstraint=eastwest;" parent="pgB8sEjVDIbPxb2HmiM6-128" vertex="1">
          <mxGeometry y="30" width="240" height="30" as="geometry" />
        </mxCell>
        <mxCell id="pgB8sEjVDIbPxb2HmiM6-130" value="PK" style="shape=partialRectangle;connectable=0;fillColor=none;top=0;left=0;bottom=0;right=0;fontStyle=1;overflow=hidden;" parent="pgB8sEjVDIbPxb2HmiM6-129" vertex="1">
          <mxGeometry width="30" height="30" as="geometry" />
        </mxCell>
        <mxCell id="pgB8sEjVDIbPxb2HmiM6-131" value="id" style="shape=partialRectangle;connectable=0;fillColor=none;top=0;left=0;bottom=0;right=0;align=left;spacingLeft=6;fontStyle=5;overflow=hidden;" parent="pgB8sEjVDIbPxb2HmiM6-129" vertex="1">
          <mxGeometry x="30" width="110" height="30" as="geometry" />
        </mxCell>
        <mxCell id="pgB8sEjVDIbPxb2HmiM6-142" value="unique" style="shape=partialRectangle;connectable=0;fillColor=none;top=0;left=0;bottom=0;right=0;align=left;spacingLeft=6;fontStyle=5;overflow=hidden;" parent="pgB8sEjVDIbPxb2HmiM6-129" vertex="1">
          <mxGeometry x="140" width="100" height="30" as="geometry" />
        </mxCell>
        <mxCell id="pgB8sEjVDIbPxb2HmiM6-132" value="" style="shape=partialRectangle;collapsible=0;dropTarget=0;pointerEvents=0;fillColor=none;top=0;left=0;bottom=0;right=0;points=[[0,0.5],[1,0.5]];portConstraint=eastwest;" parent="pgB8sEjVDIbPxb2HmiM6-128" vertex="1">
          <mxGeometry y="60" width="240" height="30" as="geometry" />
        </mxCell>
        <mxCell id="pgB8sEjVDIbPxb2HmiM6-133" value="FK" style="shape=partialRectangle;connectable=0;fillColor=none;top=0;left=0;bottom=0;right=0;editable=1;overflow=hidden;" parent="pgB8sEjVDIbPxb2HmiM6-132" vertex="1">
          <mxGeometry width="30" height="30" as="geometry" />
        </mxCell>
        <mxCell id="pgB8sEjVDIbPxb2HmiM6-134" value="profile_id" style="shape=partialRectangle;connectable=0;fillColor=none;top=0;left=0;bottom=0;right=0;align=left;spacingLeft=6;overflow=hidden;" parent="pgB8sEjVDIbPxb2HmiM6-132" vertex="1">
          <mxGeometry x="30" width="110" height="30" as="geometry" />
        </mxCell>
        <mxCell id="pgB8sEjVDIbPxb2HmiM6-143" value="nullable" style="shape=partialRectangle;connectable=0;fillColor=none;top=0;left=0;bottom=0;right=0;align=left;spacingLeft=6;overflow=hidden;" parent="pgB8sEjVDIbPxb2HmiM6-132" vertex="1">
          <mxGeometry x="140" width="100" height="30" as="geometry" />
        </mxCell>
        <mxCell id="9JKyh7mim-rZq6fSw8CH-13" style="shape=partialRectangle;collapsible=0;dropTarget=0;pointerEvents=0;fillColor=none;top=0;left=0;bottom=0;right=0;points=[[0,0.5],[1,0.5]];portConstraint=eastwest;" vertex="1" parent="pgB8sEjVDIbPxb2HmiM6-128">
          <mxGeometry y="90" width="240" height="30" as="geometry" />
        </mxCell>
        <mxCell id="9JKyh7mim-rZq6fSw8CH-14" style="shape=partialRectangle;connectable=0;fillColor=none;top=0;left=0;bottom=0;right=0;editable=1;overflow=hidden;" vertex="1" parent="9JKyh7mim-rZq6fSw8CH-13">
          <mxGeometry width="30" height="30" as="geometry" />
        </mxCell>
        <mxCell id="9JKyh7mim-rZq6fSw8CH-15" value="name" style="shape=partialRectangle;connectable=0;fillColor=none;top=0;left=0;bottom=0;right=0;align=left;spacingLeft=6;overflow=hidden;" vertex="1" parent="9JKyh7mim-rZq6fSw8CH-13">
          <mxGeometry x="30" width="110" height="30" as="geometry" />
        </mxCell>
        <mxCell id="9JKyh7mim-rZq6fSw8CH-16" style="shape=partialRectangle;connectable=0;fillColor=none;top=0;left=0;bottom=0;right=0;align=left;spacingLeft=6;overflow=hidden;" vertex="1" parent="9JKyh7mim-rZq6fSw8CH-13">
          <mxGeometry x="140" width="100" height="30" as="geometry" />
        </mxCell>
        <mxCell id="9JKyh7mim-rZq6fSw8CH-17" style="shape=partialRectangle;collapsible=0;dropTarget=0;pointerEvents=0;fillColor=none;top=0;left=0;bottom=0;right=0;points=[[0,0.5],[1,0.5]];portConstraint=eastwest;" vertex="1" parent="pgB8sEjVDIbPxb2HmiM6-128">
          <mxGeometry y="120" width="240" height="30" as="geometry" />
        </mxCell>
        <mxCell id="9JKyh7mim-rZq6fSw8CH-18" style="shape=partialRectangle;connectable=0;fillColor=none;top=0;left=0;bottom=0;right=0;editable=1;overflow=hidden;" vertex="1" parent="9JKyh7mim-rZq6fSw8CH-17">
          <mxGeometry width="30" height="30" as="geometry" />
        </mxCell>
        <mxCell id="9JKyh7mim-rZq6fSw8CH-19" value="username" style="shape=partialRectangle;connectable=0;fillColor=none;top=0;left=0;bottom=0;right=0;align=left;spacingLeft=6;overflow=hidden;" vertex="1" parent="9JKyh7mim-rZq6fSw8CH-17">
          <mxGeometry x="30" width="110" height="30" as="geometry" />
        </mxCell>
        <mxCell id="9JKyh7mim-rZq6fSw8CH-20" value="unique" style="shape=partialRectangle;connectable=0;fillColor=none;top=0;left=0;bottom=0;right=0;align=left;spacingLeft=6;overflow=hidden;" vertex="1" parent="9JKyh7mim-rZq6fSw8CH-17">
          <mxGeometry x="140" width="100" height="30" as="geometry" />
        </mxCell>
        <mxCell id="pgB8sEjVDIbPxb2HmiM6-135" value="" style="shape=partialRectangle;collapsible=0;dropTarget=0;pointerEvents=0;fillColor=none;top=0;left=0;bottom=0;right=0;points=[[0,0.5],[1,0.5]];portConstraint=eastwest;" parent="pgB8sEjVDIbPxb2HmiM6-128" vertex="1">
          <mxGeometry y="150" width="240" height="30" as="geometry" />
        </mxCell>
        <mxCell id="pgB8sEjVDIbPxb2HmiM6-136" value="" style="shape=partialRectangle;connectable=0;fillColor=none;top=0;left=0;bottom=0;right=0;editable=1;overflow=hidden;" parent="pgB8sEjVDIbPxb2HmiM6-135" vertex="1">
          <mxGeometry width="30" height="30" as="geometry" />
        </mxCell>
        <mxCell id="pgB8sEjVDIbPxb2HmiM6-137" value="password" style="shape=partialRectangle;connectable=0;fillColor=none;top=0;left=0;bottom=0;right=0;align=left;spacingLeft=6;overflow=hidden;" parent="pgB8sEjVDIbPxb2HmiM6-135" vertex="1">
          <mxGeometry x="30" width="110" height="30" as="geometry" />
        </mxCell>
        <mxCell id="pgB8sEjVDIbPxb2HmiM6-144" value="bcrypt" style="shape=partialRectangle;connectable=0;fillColor=none;top=0;left=0;bottom=0;right=0;align=left;spacingLeft=6;overflow=hidden;" parent="pgB8sEjVDIbPxb2HmiM6-135" vertex="1">
          <mxGeometry x="140" width="100" height="30" as="geometry" />
        </mxCell>
        <mxCell id="pgB8sEjVDIbPxb2HmiM6-138" value="" style="shape=partialRectangle;collapsible=0;dropTarget=0;pointerEvents=0;fillColor=none;top=0;left=0;bottom=0;right=0;points=[[0,0.5],[1,0.5]];portConstraint=eastwest;" parent="pgB8sEjVDIbPxb2HmiM6-128" vertex="1">
          <mxGeometry y="180" width="240" height="30" as="geometry" />
        </mxCell>
        <mxCell id="pgB8sEjVDIbPxb2HmiM6-139" value="" style="shape=partialRectangle;connectable=0;fillColor=none;top=0;left=0;bottom=0;right=0;editable=1;overflow=hidden;" parent="pgB8sEjVDIbPxb2HmiM6-138" vertex="1">
          <mxGeometry width="30" height="30" as="geometry" />
        </mxCell>
        <mxCell id="pgB8sEjVDIbPxb2HmiM6-140" value="email" style="shape=partialRectangle;connectable=0;fillColor=none;top=0;left=0;bottom=0;right=0;align=left;spacingLeft=6;overflow=hidden;" parent="pgB8sEjVDIbPxb2HmiM6-138" vertex="1">
          <mxGeometry x="30" width="110" height="30" as="geometry" />
        </mxCell>
        <mxCell id="pgB8sEjVDIbPxb2HmiM6-145" value="unique" style="shape=partialRectangle;connectable=0;fillColor=none;top=0;left=0;bottom=0;right=0;align=left;spacingLeft=6;overflow=hidden;" parent="pgB8sEjVDIbPxb2HmiM6-138" vertex="1">
          <mxGeometry x="140" width="100" height="30" as="geometry" />
        </mxCell>
        <mxCell id="pgB8sEjVDIbPxb2HmiM6-212" style="shape=partialRectangle;collapsible=0;dropTarget=0;pointerEvents=0;fillColor=none;top=0;left=0;bottom=0;right=0;points=[[0,0.5],[1,0.5]];portConstraint=eastwest;" parent="pgB8sEjVDIbPxb2HmiM6-128" vertex="1">
          <mxGeometry y="210" width="240" height="30" as="geometry" />
        </mxCell>
        <mxCell id="pgB8sEjVDIbPxb2HmiM6-213" style="shape=partialRectangle;connectable=0;fillColor=none;top=0;left=0;bottom=0;right=0;editable=1;overflow=hidden;" parent="pgB8sEjVDIbPxb2HmiM6-212" vertex="1">
          <mxGeometry width="30" height="30" as="geometry" />
        </mxCell>
        <mxCell id="pgB8sEjVDIbPxb2HmiM6-214" value="role" style="shape=partialRectangle;connectable=0;fillColor=none;top=0;left=0;bottom=0;right=0;align=left;spacingLeft=6;overflow=hidden;" parent="pgB8sEjVDIbPxb2HmiM6-212" vertex="1">
          <mxGeometry x="30" width="110" height="30" as="geometry" />
        </mxCell>
        <mxCell id="pgB8sEjVDIbPxb2HmiM6-215" value="default(Member)" style="shape=partialRectangle;connectable=0;fillColor=none;top=0;left=0;bottom=0;right=0;align=left;spacingLeft=6;overflow=hidden;" parent="pgB8sEjVDIbPxb2HmiM6-212" vertex="1">
          <mxGeometry x="140" width="100" height="30" as="geometry" />
        </mxCell>
        <mxCell id="pgB8sEjVDIbPxb2HmiM6-216" style="shape=partialRectangle;collapsible=0;dropTarget=0;pointerEvents=0;fillColor=none;top=0;left=0;bottom=0;right=0;points=[[0,0.5],[1,0.5]];portConstraint=eastwest;" parent="pgB8sEjVDIbPxb2HmiM6-128" vertex="1">
          <mxGeometry y="240" width="240" height="30" as="geometry" />
        </mxCell>
        <mxCell id="pgB8sEjVDIbPxb2HmiM6-217" style="shape=partialRectangle;connectable=0;fillColor=none;top=0;left=0;bottom=0;right=0;editable=1;overflow=hidden;" parent="pgB8sEjVDIbPxb2HmiM6-216" vertex="1">
          <mxGeometry width="30" height="30" as="geometry" />
        </mxCell>
        <mxCell id="pgB8sEjVDIbPxb2HmiM6-218" value="deleted_at" style="shape=partialRectangle;connectable=0;fillColor=none;top=0;left=0;bottom=0;right=0;align=left;spacingLeft=6;overflow=hidden;" parent="pgB8sEjVDIbPxb2HmiM6-216" vertex="1">
          <mxGeometry x="30" width="110" height="30" as="geometry" />
        </mxCell>
        <mxCell id="pgB8sEjVDIbPxb2HmiM6-219" value="nullable" style="shape=partialRectangle;connectable=0;fillColor=none;top=0;left=0;bottom=0;right=0;align=left;spacingLeft=6;overflow=hidden;" parent="pgB8sEjVDIbPxb2HmiM6-216" vertex="1">
          <mxGeometry x="140" width="100" height="30" as="geometry" />
        </mxCell>
        <mxCell id="9JKyh7mim-rZq6fSw8CH-25" style="shape=partialRectangle;collapsible=0;dropTarget=0;pointerEvents=0;fillColor=none;top=0;left=0;bottom=0;right=0;points=[[0,0.5],[1,0.5]];portConstraint=eastwest;" vertex="1" parent="pgB8sEjVDIbPxb2HmiM6-128">
          <mxGeometry y="270" width="240" height="30" as="geometry" />
        </mxCell>
        <mxCell id="9JKyh7mim-rZq6fSw8CH-26" style="shape=partialRectangle;connectable=0;fillColor=none;top=0;left=0;bottom=0;right=0;editable=1;overflow=hidden;" vertex="1" parent="9JKyh7mim-rZq6fSw8CH-25">
          <mxGeometry width="30" height="30" as="geometry" />
        </mxCell>
        <mxCell id="9JKyh7mim-rZq6fSw8CH-27" value="created_at" style="shape=partialRectangle;connectable=0;fillColor=none;top=0;left=0;bottom=0;right=0;align=left;spacingLeft=6;overflow=hidden;" vertex="1" parent="9JKyh7mim-rZq6fSw8CH-25">
          <mxGeometry x="30" width="110" height="30" as="geometry" />
        </mxCell>
        <mxCell id="9JKyh7mim-rZq6fSw8CH-28" style="shape=partialRectangle;connectable=0;fillColor=none;top=0;left=0;bottom=0;right=0;align=left;spacingLeft=6;overflow=hidden;" vertex="1" parent="9JKyh7mim-rZq6fSw8CH-25">
          <mxGeometry x="140" width="100" height="30" as="geometry" />
        </mxCell>
        <mxCell id="9JKyh7mim-rZq6fSw8CH-21" style="shape=partialRectangle;collapsible=0;dropTarget=0;pointerEvents=0;fillColor=none;top=0;left=0;bottom=0;right=0;points=[[0,0.5],[1,0.5]];portConstraint=eastwest;" vertex="1" parent="pgB8sEjVDIbPxb2HmiM6-128">
          <mxGeometry y="300" width="240" height="30" as="geometry" />
        </mxCell>
        <mxCell id="9JKyh7mim-rZq6fSw8CH-22" style="shape=partialRectangle;connectable=0;fillColor=none;top=0;left=0;bottom=0;right=0;editable=1;overflow=hidden;" vertex="1" parent="9JKyh7mim-rZq6fSw8CH-21">
          <mxGeometry width="30" height="30" as="geometry" />
        </mxCell>
        <mxCell id="9JKyh7mim-rZq6fSw8CH-23" value="updated_at" style="shape=partialRectangle;connectable=0;fillColor=none;top=0;left=0;bottom=0;right=0;align=left;spacingLeft=6;overflow=hidden;" vertex="1" parent="9JKyh7mim-rZq6fSw8CH-21">
          <mxGeometry x="30" width="110" height="30" as="geometry" />
        </mxCell>
        <mxCell id="9JKyh7mim-rZq6fSw8CH-24" style="shape=partialRectangle;connectable=0;fillColor=none;top=0;left=0;bottom=0;right=0;align=left;spacingLeft=6;overflow=hidden;" vertex="1" parent="9JKyh7mim-rZq6fSw8CH-21">
          <mxGeometry x="140" width="100" height="30" as="geometry" />
        </mxCell>
        <mxCell id="pgB8sEjVDIbPxb2HmiM6-150" value="Profiles" style="shape=table;startSize=30;container=1;collapsible=1;childLayout=tableLayout;fixedRows=1;rowLines=0;fontStyle=1;align=center;resizeLast=1;" parent="1" vertex="1">
          <mxGeometry x="825" y="-530" width="210" height="400" as="geometry" />
        </mxCell>
        <mxCell id="pgB8sEjVDIbPxb2HmiM6-151" value="" style="shape=partialRectangle;collapsible=0;dropTarget=0;pointerEvents=0;fillColor=none;top=0;left=0;bottom=1;right=0;points=[[0,0.5],[1,0.5]];portConstraint=eastwest;" parent="pgB8sEjVDIbPxb2HmiM6-150" vertex="1">
          <mxGeometry y="30" width="210" height="30" as="geometry" />
        </mxCell>
        <mxCell id="pgB8sEjVDIbPxb2HmiM6-152" value="PK" style="shape=partialRectangle;connectable=0;fillColor=none;top=0;left=0;bottom=0;right=0;fontStyle=1;overflow=hidden;" parent="pgB8sEjVDIbPxb2HmiM6-151" vertex="1">
          <mxGeometry width="30" height="30" as="geometry" />
        </mxCell>
        <mxCell id="pgB8sEjVDIbPxb2HmiM6-153" value="id" style="shape=partialRectangle;connectable=0;fillColor=none;top=0;left=0;bottom=0;right=0;align=left;spacingLeft=6;fontStyle=5;overflow=hidden;" parent="pgB8sEjVDIbPxb2HmiM6-151" vertex="1">
          <mxGeometry x="30" width="110" height="30" as="geometry" />
        </mxCell>
        <mxCell id="pgB8sEjVDIbPxb2HmiM6-163" value="unique" style="shape=partialRectangle;connectable=0;fillColor=none;top=0;left=0;bottom=0;right=0;align=left;spacingLeft=6;fontStyle=5;overflow=hidden;" parent="pgB8sEjVDIbPxb2HmiM6-151" vertex="1">
          <mxGeometry x="140" width="70" height="30" as="geometry" />
        </mxCell>
        <mxCell id="pgB8sEjVDIbPxb2HmiM6-188" style="shape=partialRectangle;collapsible=0;dropTarget=0;pointerEvents=0;fillColor=none;top=0;left=0;bottom=0;right=0;points=[[0,0.5],[1,0.5]];portConstraint=eastwest;" parent="pgB8sEjVDIbPxb2HmiM6-150" vertex="1">
          <mxGeometry y="60" width="210" height="30" as="geometry" />
        </mxCell>
        <mxCell id="pgB8sEjVDIbPxb2HmiM6-189" value="" style="shape=partialRectangle;connectable=0;fillColor=none;top=0;left=0;bottom=0;right=0;editable=1;overflow=hidden;" parent="pgB8sEjVDIbPxb2HmiM6-188" vertex="1">
          <mxGeometry width="30" height="30" as="geometry" />
        </mxCell>
        <mxCell id="pgB8sEjVDIbPxb2HmiM6-190" value="member_id" style="shape=partialRectangle;connectable=0;fillColor=none;top=0;left=0;bottom=0;right=0;align=left;spacingLeft=6;overflow=hidden;" parent="pgB8sEjVDIbPxb2HmiM6-188" vertex="1">
          <mxGeometry x="30" width="110" height="30" as="geometry" />
        </mxCell>
        <mxCell id="pgB8sEjVDIbPxb2HmiM6-191" value="nullable" style="shape=partialRectangle;connectable=0;fillColor=none;top=0;left=0;bottom=0;right=0;align=left;spacingLeft=6;overflow=hidden;" parent="pgB8sEjVDIbPxb2HmiM6-188" vertex="1">
          <mxGeometry x="140" width="70" height="30" as="geometry" />
        </mxCell>
        <mxCell id="pgB8sEjVDIbPxb2HmiM6-154" value="" style="shape=partialRectangle;collapsible=0;dropTarget=0;pointerEvents=0;fillColor=none;top=0;left=0;bottom=0;right=0;points=[[0,0.5],[1,0.5]];portConstraint=eastwest;" parent="pgB8sEjVDIbPxb2HmiM6-150" vertex="1">
          <mxGeometry y="90" width="210" height="30" as="geometry" />
        </mxCell>
        <mxCell id="pgB8sEjVDIbPxb2HmiM6-155" value="" style="shape=partialRectangle;connectable=0;fillColor=none;top=0;left=0;bottom=0;right=0;editable=1;overflow=hidden;" parent="pgB8sEjVDIbPxb2HmiM6-154" vertex="1">
          <mxGeometry width="30" height="30" as="geometry" />
        </mxCell>
        <mxCell id="pgB8sEjVDIbPxb2HmiM6-156" value="name" style="shape=partialRectangle;connectable=0;fillColor=none;top=0;left=0;bottom=0;right=0;align=left;spacingLeft=6;overflow=hidden;" parent="pgB8sEjVDIbPxb2HmiM6-154" vertex="1">
          <mxGeometry x="30" width="110" height="30" as="geometry" />
        </mxCell>
        <mxCell id="pgB8sEjVDIbPxb2HmiM6-164" style="shape=partialRectangle;connectable=0;fillColor=none;top=0;left=0;bottom=0;right=0;align=left;spacingLeft=6;overflow=hidden;" parent="pgB8sEjVDIbPxb2HmiM6-154" vertex="1">
          <mxGeometry x="140" width="70" height="30" as="geometry" />
        </mxCell>
        <mxCell id="pgB8sEjVDIbPxb2HmiM6-157" value="" style="shape=partialRectangle;collapsible=0;dropTarget=0;pointerEvents=0;fillColor=none;top=0;left=0;bottom=0;right=0;points=[[0,0.5],[1,0.5]];portConstraint=eastwest;" parent="pgB8sEjVDIbPxb2HmiM6-150" vertex="1">
          <mxGeometry y="120" width="210" height="30" as="geometry" />
        </mxCell>
        <mxCell id="pgB8sEjVDIbPxb2HmiM6-158" value="" style="shape=partialRectangle;connectable=0;fillColor=none;top=0;left=0;bottom=0;right=0;editable=1;overflow=hidden;" parent="pgB8sEjVDIbPxb2HmiM6-157" vertex="1">
          <mxGeometry width="30" height="30" as="geometry" />
        </mxCell>
        <mxCell id="pgB8sEjVDIbPxb2HmiM6-159" value="student_number" style="shape=partialRectangle;connectable=0;fillColor=none;top=0;left=0;bottom=0;right=0;align=left;spacingLeft=6;overflow=hidden;" parent="pgB8sEjVDIbPxb2HmiM6-157" vertex="1">
          <mxGeometry x="30" width="110" height="30" as="geometry" />
        </mxCell>
        <mxCell id="pgB8sEjVDIbPxb2HmiM6-165" value="unique" style="shape=partialRectangle;connectable=0;fillColor=none;top=0;left=0;bottom=0;right=0;align=left;spacingLeft=6;overflow=hidden;" parent="pgB8sEjVDIbPxb2HmiM6-157" vertex="1">
          <mxGeometry x="140" width="70" height="30" as="geometry" />
        </mxCell>
        <mxCell id="pgB8sEjVDIbPxb2HmiM6-160" value="" style="shape=partialRectangle;collapsible=0;dropTarget=0;pointerEvents=0;fillColor=none;top=0;left=0;bottom=0;right=0;points=[[0,0.5],[1,0.5]];portConstraint=eastwest;" parent="pgB8sEjVDIbPxb2HmiM6-150" vertex="1">
          <mxGeometry y="150" width="210" height="30" as="geometry" />
        </mxCell>
        <mxCell id="pgB8sEjVDIbPxb2HmiM6-161" value="" style="shape=partialRectangle;connectable=0;fillColor=none;top=0;left=0;bottom=0;right=0;editable=1;overflow=hidden;" parent="pgB8sEjVDIbPxb2HmiM6-160" vertex="1">
          <mxGeometry width="30" height="30" as="geometry" />
        </mxCell>
        <mxCell id="pgB8sEjVDIbPxb2HmiM6-162" value="batch" style="shape=partialRectangle;connectable=0;fillColor=none;top=0;left=0;bottom=0;right=0;align=left;spacingLeft=6;overflow=hidden;" parent="pgB8sEjVDIbPxb2HmiM6-160" vertex="1">
          <mxGeometry x="30" width="110" height="30" as="geometry" />
        </mxCell>
        <mxCell id="pgB8sEjVDIbPxb2HmiM6-166" style="shape=partialRectangle;connectable=0;fillColor=none;top=0;left=0;bottom=0;right=0;align=left;spacingLeft=6;overflow=hidden;" parent="pgB8sEjVDIbPxb2HmiM6-160" vertex="1">
          <mxGeometry x="140" width="70" height="30" as="geometry" />
        </mxCell>
        <mxCell id="pgB8sEjVDIbPxb2HmiM6-176" style="shape=partialRectangle;collapsible=0;dropTarget=0;pointerEvents=0;fillColor=none;top=0;left=0;bottom=0;right=0;points=[[0,0.5],[1,0.5]];portConstraint=eastwest;" parent="pgB8sEjVDIbPxb2HmiM6-150" vertex="1">
          <mxGeometry y="180" width="210" height="30" as="geometry" />
        </mxCell>
        <mxCell id="pgB8sEjVDIbPxb2HmiM6-177" style="shape=partialRectangle;connectable=0;fillColor=none;top=0;left=0;bottom=0;right=0;editable=1;overflow=hidden;" parent="pgB8sEjVDIbPxb2HmiM6-176" vertex="1">
          <mxGeometry width="30" height="30" as="geometry" />
        </mxCell>
        <mxCell id="pgB8sEjVDIbPxb2HmiM6-178" value="faculty" style="shape=partialRectangle;connectable=0;fillColor=none;top=0;left=0;bottom=0;right=0;align=left;spacingLeft=6;overflow=hidden;" parent="pgB8sEjVDIbPxb2HmiM6-176" vertex="1">
          <mxGeometry x="30" width="110" height="30" as="geometry" />
        </mxCell>
        <mxCell id="pgB8sEjVDIbPxb2HmiM6-179" style="shape=partialRectangle;connectable=0;fillColor=none;top=0;left=0;bottom=0;right=0;align=left;spacingLeft=6;overflow=hidden;" parent="pgB8sEjVDIbPxb2HmiM6-176" vertex="1">
          <mxGeometry x="140" width="70" height="30" as="geometry" />
        </mxCell>
        <mxCell id="pgB8sEjVDIbPxb2HmiM6-172" style="shape=partialRectangle;collapsible=0;dropTarget=0;pointerEvents=0;fillColor=none;top=0;left=0;bottom=0;right=0;points=[[0,0.5],[1,0.5]];portConstraint=eastwest;" parent="pgB8sEjVDIbPxb2HmiM6-150" vertex="1">
          <mxGeometry y="210" width="210" height="30" as="geometry" />
        </mxCell>
        <mxCell id="pgB8sEjVDIbPxb2HmiM6-173" style="shape=partialRectangle;connectable=0;fillColor=none;top=0;left=0;bottom=0;right=0;editable=1;overflow=hidden;" parent="pgB8sEjVDIbPxb2HmiM6-172" vertex="1">
          <mxGeometry width="30" height="30" as="geometry" />
        </mxCell>
        <mxCell id="pgB8sEjVDIbPxb2HmiM6-174" value="major" style="shape=partialRectangle;connectable=0;fillColor=none;top=0;left=0;bottom=0;right=0;align=left;spacingLeft=6;overflow=hidden;" parent="pgB8sEjVDIbPxb2HmiM6-172" vertex="1">
          <mxGeometry x="30" width="110" height="30" as="geometry" />
        </mxCell>
        <mxCell id="pgB8sEjVDIbPxb2HmiM6-175" style="shape=partialRectangle;connectable=0;fillColor=none;top=0;left=0;bottom=0;right=0;align=left;spacingLeft=6;overflow=hidden;" parent="pgB8sEjVDIbPxb2HmiM6-172" vertex="1">
          <mxGeometry x="140" width="70" height="30" as="geometry" />
        </mxCell>
        <mxCell id="pgB8sEjVDIbPxb2HmiM6-184" style="shape=partialRectangle;collapsible=0;dropTarget=0;pointerEvents=0;fillColor=none;top=0;left=0;bottom=0;right=0;points=[[0,0.5],[1,0.5]];portConstraint=eastwest;" parent="pgB8sEjVDIbPxb2HmiM6-150" vertex="1">
          <mxGeometry y="240" width="210" height="30" as="geometry" />
        </mxCell>
        <mxCell id="pgB8sEjVDIbPxb2HmiM6-185" style="shape=partialRectangle;connectable=0;fillColor=none;top=0;left=0;bottom=0;right=0;editable=1;overflow=hidden;" parent="pgB8sEjVDIbPxb2HmiM6-184" vertex="1">
          <mxGeometry width="30" height="30" as="geometry" />
        </mxCell>
        <mxCell id="pgB8sEjVDIbPxb2HmiM6-186" value="phone" style="shape=partialRectangle;connectable=0;fillColor=none;top=0;left=0;bottom=0;right=0;align=left;spacingLeft=6;overflow=hidden;" parent="pgB8sEjVDIbPxb2HmiM6-184" vertex="1">
          <mxGeometry x="30" width="110" height="30" as="geometry" />
        </mxCell>
        <mxCell id="pgB8sEjVDIbPxb2HmiM6-187" style="shape=partialRectangle;connectable=0;fillColor=none;top=0;left=0;bottom=0;right=0;align=left;spacingLeft=6;overflow=hidden;" parent="pgB8sEjVDIbPxb2HmiM6-184" vertex="1">
          <mxGeometry x="140" width="70" height="30" as="geometry" />
        </mxCell>
        <mxCell id="pgB8sEjVDIbPxb2HmiM6-180" style="shape=partialRectangle;collapsible=0;dropTarget=0;pointerEvents=0;fillColor=none;top=0;left=0;bottom=0;right=0;points=[[0,0.5],[1,0.5]];portConstraint=eastwest;" parent="pgB8sEjVDIbPxb2HmiM6-150" vertex="1">
          <mxGeometry y="270" width="210" height="30" as="geometry" />
        </mxCell>
        <mxCell id="pgB8sEjVDIbPxb2HmiM6-181" style="shape=partialRectangle;connectable=0;fillColor=none;top=0;left=0;bottom=0;right=0;editable=1;overflow=hidden;" parent="pgB8sEjVDIbPxb2HmiM6-180" vertex="1">
          <mxGeometry width="30" height="30" as="geometry" />
        </mxCell>
        <mxCell id="pgB8sEjVDIbPxb2HmiM6-182" value="line" style="shape=partialRectangle;connectable=0;fillColor=none;top=0;left=0;bottom=0;right=0;align=left;spacingLeft=6;overflow=hidden;" parent="pgB8sEjVDIbPxb2HmiM6-180" vertex="1">
          <mxGeometry x="30" width="110" height="30" as="geometry" />
        </mxCell>
        <mxCell id="pgB8sEjVDIbPxb2HmiM6-183" style="shape=partialRectangle;connectable=0;fillColor=none;top=0;left=0;bottom=0;right=0;align=left;spacingLeft=6;overflow=hidden;" parent="pgB8sEjVDIbPxb2HmiM6-180" vertex="1">
          <mxGeometry x="140" width="70" height="30" as="geometry" />
        </mxCell>
        <mxCell id="9JKyh7mim-rZq6fSw8CH-9" style="shape=partialRectangle;collapsible=0;dropTarget=0;pointerEvents=0;fillColor=none;top=0;left=0;bottom=0;right=0;points=[[0,0.5],[1,0.5]];portConstraint=eastwest;" vertex="1" parent="pgB8sEjVDIbPxb2HmiM6-150">
          <mxGeometry y="300" width="210" height="30" as="geometry" />
        </mxCell>
        <mxCell id="9JKyh7mim-rZq6fSw8CH-10" style="shape=partialRectangle;connectable=0;fillColor=none;top=0;left=0;bottom=0;right=0;editable=1;overflow=hidden;" vertex="1" parent="9JKyh7mim-rZq6fSw8CH-9">
          <mxGeometry width="30" height="30" as="geometry" />
        </mxCell>
        <mxCell id="9JKyh7mim-rZq6fSw8CH-11" value="deleted_at" style="shape=partialRectangle;connectable=0;fillColor=none;top=0;left=0;bottom=0;right=0;align=left;spacingLeft=6;overflow=hidden;" vertex="1" parent="9JKyh7mim-rZq6fSw8CH-9">
          <mxGeometry x="30" width="110" height="30" as="geometry" />
        </mxCell>
        <mxCell id="9JKyh7mim-rZq6fSw8CH-12" value="nullable" style="shape=partialRectangle;connectable=0;fillColor=none;top=0;left=0;bottom=0;right=0;align=left;spacingLeft=6;overflow=hidden;" vertex="1" parent="9JKyh7mim-rZq6fSw8CH-9">
          <mxGeometry x="140" width="70" height="30" as="geometry" />
        </mxCell>
        <mxCell id="9JKyh7mim-rZq6fSw8CH-5" style="shape=partialRectangle;collapsible=0;dropTarget=0;pointerEvents=0;fillColor=none;top=0;left=0;bottom=0;right=0;points=[[0,0.5],[1,0.5]];portConstraint=eastwest;" vertex="1" parent="pgB8sEjVDIbPxb2HmiM6-150">
          <mxGeometry y="330" width="210" height="30" as="geometry" />
        </mxCell>
        <mxCell id="9JKyh7mim-rZq6fSw8CH-6" style="shape=partialRectangle;connectable=0;fillColor=none;top=0;left=0;bottom=0;right=0;editable=1;overflow=hidden;" vertex="1" parent="9JKyh7mim-rZq6fSw8CH-5">
          <mxGeometry width="30" height="30" as="geometry" />
        </mxCell>
        <mxCell id="9JKyh7mim-rZq6fSw8CH-7" value="created_at" style="shape=partialRectangle;connectable=0;fillColor=none;top=0;left=0;bottom=0;right=0;align=left;spacingLeft=6;overflow=hidden;" vertex="1" parent="9JKyh7mim-rZq6fSw8CH-5">
          <mxGeometry x="30" width="110" height="30" as="geometry" />
        </mxCell>
        <mxCell id="9JKyh7mim-rZq6fSw8CH-8" style="shape=partialRectangle;connectable=0;fillColor=none;top=0;left=0;bottom=0;right=0;align=left;spacingLeft=6;overflow=hidden;" vertex="1" parent="9JKyh7mim-rZq6fSw8CH-5">
          <mxGeometry x="140" width="70" height="30" as="geometry" />
        </mxCell>
        <mxCell id="9JKyh7mim-rZq6fSw8CH-1" style="shape=partialRectangle;collapsible=0;dropTarget=0;pointerEvents=0;fillColor=none;top=0;left=0;bottom=0;right=0;points=[[0,0.5],[1,0.5]];portConstraint=eastwest;" vertex="1" parent="pgB8sEjVDIbPxb2HmiM6-150">
          <mxGeometry y="360" width="210" height="30" as="geometry" />
        </mxCell>
        <mxCell id="9JKyh7mim-rZq6fSw8CH-2" style="shape=partialRectangle;connectable=0;fillColor=none;top=0;left=0;bottom=0;right=0;editable=1;overflow=hidden;" vertex="1" parent="9JKyh7mim-rZq6fSw8CH-1">
          <mxGeometry width="30" height="30" as="geometry" />
        </mxCell>
        <mxCell id="9JKyh7mim-rZq6fSw8CH-3" value="updated_at" style="shape=partialRectangle;connectable=0;fillColor=none;top=0;left=0;bottom=0;right=0;align=left;spacingLeft=6;overflow=hidden;" vertex="1" parent="9JKyh7mim-rZq6fSw8CH-1">
          <mxGeometry x="30" width="110" height="30" as="geometry" />
        </mxCell>
        <mxCell id="9JKyh7mim-rZq6fSw8CH-4" style="shape=partialRectangle;connectable=0;fillColor=none;top=0;left=0;bottom=0;right=0;align=left;spacingLeft=6;overflow=hidden;" vertex="1" parent="9JKyh7mim-rZq6fSw8CH-1">
          <mxGeometry x="140" width="70" height="30" as="geometry" />
        </mxCell>
        <mxCell id="pgB8sEjVDIbPxb2HmiM6-196" value="Files" style="shape=table;startSize=30;container=1;collapsible=1;childLayout=tableLayout;fixedRows=1;rowLines=0;fontStyle=1;align=center;resizeLast=1;" parent="1" vertex="1">
          <mxGeometry x="1410" y="-530" width="210" height="250" as="geometry" />
        </mxCell>
        <mxCell id="pgB8sEjVDIbPxb2HmiM6-197" value="" style="shape=partialRectangle;collapsible=0;dropTarget=0;pointerEvents=0;fillColor=none;top=0;left=0;bottom=1;right=0;points=[[0,0.5],[1,0.5]];portConstraint=eastwest;" parent="pgB8sEjVDIbPxb2HmiM6-196" vertex="1">
          <mxGeometry y="30" width="210" height="30" as="geometry" />
        </mxCell>
        <mxCell id="pgB8sEjVDIbPxb2HmiM6-198" value="PK" style="shape=partialRectangle;connectable=0;fillColor=none;top=0;left=0;bottom=0;right=0;fontStyle=1;overflow=hidden;" parent="pgB8sEjVDIbPxb2HmiM6-197" vertex="1">
          <mxGeometry width="30" height="30" as="geometry" />
        </mxCell>
        <mxCell id="pgB8sEjVDIbPxb2HmiM6-199" value="id" style="shape=partialRectangle;connectable=0;fillColor=none;top=0;left=0;bottom=0;right=0;align=left;spacingLeft=6;fontStyle=5;overflow=hidden;" parent="pgB8sEjVDIbPxb2HmiM6-197" vertex="1">
          <mxGeometry x="30" width="90" height="30" as="geometry" />
        </mxCell>
        <mxCell id="pgB8sEjVDIbPxb2HmiM6-221" value="unique" style="shape=partialRectangle;connectable=0;fillColor=none;top=0;left=0;bottom=0;right=0;align=left;spacingLeft=6;fontStyle=5;overflow=hidden;" parent="pgB8sEjVDIbPxb2HmiM6-197" vertex="1">
          <mxGeometry x="120" width="90" height="30" as="geometry" />
        </mxCell>
        <mxCell id="pgB8sEjVDIbPxb2HmiM6-200" value="" style="shape=partialRectangle;collapsible=0;dropTarget=0;pointerEvents=0;fillColor=none;top=0;left=0;bottom=0;right=0;points=[[0,0.5],[1,0.5]];portConstraint=eastwest;" parent="pgB8sEjVDIbPxb2HmiM6-196" vertex="1">
          <mxGeometry y="60" width="210" height="30" as="geometry" />
        </mxCell>
        <mxCell id="pgB8sEjVDIbPxb2HmiM6-201" value="FK" style="shape=partialRectangle;connectable=0;fillColor=none;top=0;left=0;bottom=0;right=0;editable=1;overflow=hidden;" parent="pgB8sEjVDIbPxb2HmiM6-200" vertex="1">
          <mxGeometry width="30" height="30" as="geometry" />
        </mxCell>
        <mxCell id="pgB8sEjVDIbPxb2HmiM6-202" value="user_id" style="shape=partialRectangle;connectable=0;fillColor=none;top=0;left=0;bottom=0;right=0;align=left;spacingLeft=6;overflow=hidden;" parent="pgB8sEjVDIbPxb2HmiM6-200" vertex="1">
          <mxGeometry x="30" width="90" height="30" as="geometry" />
        </mxCell>
        <mxCell id="pgB8sEjVDIbPxb2HmiM6-222" style="shape=partialRectangle;connectable=0;fillColor=none;top=0;left=0;bottom=0;right=0;align=left;spacingLeft=6;overflow=hidden;" parent="pgB8sEjVDIbPxb2HmiM6-200" vertex="1">
          <mxGeometry x="120" width="90" height="30" as="geometry" />
        </mxCell>
        <mxCell id="pgB8sEjVDIbPxb2HmiM6-203" value="" style="shape=partialRectangle;collapsible=0;dropTarget=0;pointerEvents=0;fillColor=none;top=0;left=0;bottom=0;right=0;points=[[0,0.5],[1,0.5]];portConstraint=eastwest;" parent="pgB8sEjVDIbPxb2HmiM6-196" vertex="1">
          <mxGeometry y="90" width="210" height="30" as="geometry" />
        </mxCell>
        <mxCell id="pgB8sEjVDIbPxb2HmiM6-204" value="" style="shape=partialRectangle;connectable=0;fillColor=none;top=0;left=0;bottom=0;right=0;editable=1;overflow=hidden;" parent="pgB8sEjVDIbPxb2HmiM6-203" vertex="1">
          <mxGeometry width="30" height="30" as="geometry" />
        </mxCell>
        <mxCell id="pgB8sEjVDIbPxb2HmiM6-205" value="payment" style="shape=partialRectangle;connectable=0;fillColor=none;top=0;left=0;bottom=0;right=0;align=left;spacingLeft=6;overflow=hidden;" parent="pgB8sEjVDIbPxb2HmiM6-203" vertex="1">
          <mxGeometry x="30" width="90" height="30" as="geometry" />
        </mxCell>
        <mxCell id="pgB8sEjVDIbPxb2HmiM6-223" style="shape=partialRectangle;connectable=0;fillColor=none;top=0;left=0;bottom=0;right=0;align=left;spacingLeft=6;overflow=hidden;" parent="pgB8sEjVDIbPxb2HmiM6-203" vertex="1">
          <mxGeometry x="120" width="90" height="30" as="geometry" />
        </mxCell>
        <mxCell id="pgB8sEjVDIbPxb2HmiM6-206" value="" style="shape=partialRectangle;collapsible=0;dropTarget=0;pointerEvents=0;fillColor=none;top=0;left=0;bottom=0;right=0;points=[[0,0.5],[1,0.5]];portConstraint=eastwest;" parent="pgB8sEjVDIbPxb2HmiM6-196" vertex="1">
          <mxGeometry y="120" width="210" height="30" as="geometry" />
        </mxCell>
        <mxCell id="pgB8sEjVDIbPxb2HmiM6-207" value="" style="shape=partialRectangle;connectable=0;fillColor=none;top=0;left=0;bottom=0;right=0;editable=1;overflow=hidden;" parent="pgB8sEjVDIbPxb2HmiM6-206" vertex="1">
          <mxGeometry width="30" height="30" as="geometry" />
        </mxCell>
        <mxCell id="pgB8sEjVDIbPxb2HmiM6-208" value="screenshot" style="shape=partialRectangle;connectable=0;fillColor=none;top=0;left=0;bottom=0;right=0;align=left;spacingLeft=6;overflow=hidden;" parent="pgB8sEjVDIbPxb2HmiM6-206" vertex="1">
          <mxGeometry x="30" width="90" height="30" as="geometry" />
        </mxCell>
        <mxCell id="pgB8sEjVDIbPxb2HmiM6-224" style="shape=partialRectangle;connectable=0;fillColor=none;top=0;left=0;bottom=0;right=0;align=left;spacingLeft=6;overflow=hidden;" parent="pgB8sEjVDIbPxb2HmiM6-206" vertex="1">
          <mxGeometry x="120" width="90" height="30" as="geometry" />
        </mxCell>
        <mxCell id="9JKyh7mim-rZq6fSw8CH-37" style="shape=partialRectangle;collapsible=0;dropTarget=0;pointerEvents=0;fillColor=none;top=0;left=0;bottom=0;right=0;points=[[0,0.5],[1,0.5]];portConstraint=eastwest;" vertex="1" parent="pgB8sEjVDIbPxb2HmiM6-196">
          <mxGeometry y="150" width="210" height="30" as="geometry" />
        </mxCell>
        <mxCell id="9JKyh7mim-rZq6fSw8CH-38" style="shape=partialRectangle;connectable=0;fillColor=none;top=0;left=0;bottom=0;right=0;editable=1;overflow=hidden;" vertex="1" parent="9JKyh7mim-rZq6fSw8CH-37">
          <mxGeometry width="30" height="30" as="geometry" />
        </mxCell>
        <mxCell id="9JKyh7mim-rZq6fSw8CH-39" value="deleted_at" style="shape=partialRectangle;connectable=0;fillColor=none;top=0;left=0;bottom=0;right=0;align=left;spacingLeft=6;overflow=hidden;" vertex="1" parent="9JKyh7mim-rZq6fSw8CH-37">
          <mxGeometry x="30" width="90" height="30" as="geometry" />
        </mxCell>
        <mxCell id="9JKyh7mim-rZq6fSw8CH-40" value="nullable" style="shape=partialRectangle;connectable=0;fillColor=none;top=0;left=0;bottom=0;right=0;align=left;spacingLeft=6;overflow=hidden;" vertex="1" parent="9JKyh7mim-rZq6fSw8CH-37">
          <mxGeometry x="120" width="90" height="30" as="geometry" />
        </mxCell>
        <mxCell id="9JKyh7mim-rZq6fSw8CH-33" style="shape=partialRectangle;collapsible=0;dropTarget=0;pointerEvents=0;fillColor=none;top=0;left=0;bottom=0;right=0;points=[[0,0.5],[1,0.5]];portConstraint=eastwest;" vertex="1" parent="pgB8sEjVDIbPxb2HmiM6-196">
          <mxGeometry y="180" width="210" height="30" as="geometry" />
        </mxCell>
        <mxCell id="9JKyh7mim-rZq6fSw8CH-34" style="shape=partialRectangle;connectable=0;fillColor=none;top=0;left=0;bottom=0;right=0;editable=1;overflow=hidden;" vertex="1" parent="9JKyh7mim-rZq6fSw8CH-33">
          <mxGeometry width="30" height="30" as="geometry" />
        </mxCell>
        <mxCell id="9JKyh7mim-rZq6fSw8CH-35" value="created_at" style="shape=partialRectangle;connectable=0;fillColor=none;top=0;left=0;bottom=0;right=0;align=left;spacingLeft=6;overflow=hidden;" vertex="1" parent="9JKyh7mim-rZq6fSw8CH-33">
          <mxGeometry x="30" width="90" height="30" as="geometry" />
        </mxCell>
        <mxCell id="9JKyh7mim-rZq6fSw8CH-36" style="shape=partialRectangle;connectable=0;fillColor=none;top=0;left=0;bottom=0;right=0;align=left;spacingLeft=6;overflow=hidden;" vertex="1" parent="9JKyh7mim-rZq6fSw8CH-33">
          <mxGeometry x="120" width="90" height="30" as="geometry" />
        </mxCell>
        <mxCell id="9JKyh7mim-rZq6fSw8CH-29" style="shape=partialRectangle;collapsible=0;dropTarget=0;pointerEvents=0;fillColor=none;top=0;left=0;bottom=0;right=0;points=[[0,0.5],[1,0.5]];portConstraint=eastwest;" vertex="1" parent="pgB8sEjVDIbPxb2HmiM6-196">
          <mxGeometry y="210" width="210" height="30" as="geometry" />
        </mxCell>
        <mxCell id="9JKyh7mim-rZq6fSw8CH-30" style="shape=partialRectangle;connectable=0;fillColor=none;top=0;left=0;bottom=0;right=0;editable=1;overflow=hidden;" vertex="1" parent="9JKyh7mim-rZq6fSw8CH-29">
          <mxGeometry width="30" height="30" as="geometry" />
        </mxCell>
        <mxCell id="9JKyh7mim-rZq6fSw8CH-31" value="updated_at" style="shape=partialRectangle;connectable=0;fillColor=none;top=0;left=0;bottom=0;right=0;align=left;spacingLeft=6;overflow=hidden;" vertex="1" parent="9JKyh7mim-rZq6fSw8CH-29">
          <mxGeometry x="30" width="90" height="30" as="geometry" />
        </mxCell>
        <mxCell id="9JKyh7mim-rZq6fSw8CH-32" style="shape=partialRectangle;connectable=0;fillColor=none;top=0;left=0;bottom=0;right=0;align=left;spacingLeft=6;overflow=hidden;" vertex="1" parent="9JKyh7mim-rZq6fSw8CH-29">
          <mxGeometry x="120" width="90" height="30" as="geometry" />
        </mxCell>
        <mxCell id="pgB8sEjVDIbPxb2HmiM6-234" style="edgeStyle=orthogonalEdgeStyle;rounded=0;orthogonalLoop=1;jettySize=auto;html=1;entryX=0;entryY=0.5;entryDx=0;entryDy=0;" parent="1" source="pgB8sEjVDIbPxb2HmiM6-226" target="pgB8sEjVDIbPxb2HmiM6-233" edge="1">
          <mxGeometry relative="1" as="geometry" />
        </mxCell>
        <mxCell id="pgB8sEjVDIbPxb2HmiM6-235" style="edgeStyle=orthogonalEdgeStyle;rounded=0;orthogonalLoop=1;jettySize=auto;html=1;entryX=0;entryY=0.5;entryDx=0;entryDy=0;" parent="1" source="pgB8sEjVDIbPxb2HmiM6-226" target="pgB8sEjVDIbPxb2HmiM6-229" edge="1">
          <mxGeometry relative="1" as="geometry" />
        </mxCell>
        <mxCell id="pgB8sEjVDIbPxb2HmiM6-244" style="edgeStyle=orthogonalEdgeStyle;rounded=0;orthogonalLoop=1;jettySize=auto;html=1;entryX=0;entryY=0.5;entryDx=0;entryDy=0;" parent="1" source="pgB8sEjVDIbPxb2HmiM6-226" target="pgB8sEjVDIbPxb2HmiM6-243" edge="1">
          <mxGeometry relative="1" as="geometry" />
        </mxCell>
        <mxCell id="pgB8sEjVDIbPxb2HmiM6-226" value="Admin" style="rounded=1;whiteSpace=wrap;html=1;" parent="1" vertex="1">
          <mxGeometry x="30" y="660" width="80" height="40" as="geometry" />
        </mxCell>
        <mxCell id="pgB8sEjVDIbPxb2HmiM6-229" value="Dashboard" style="rounded=1;whiteSpace=wrap;html=1;" parent="1" vertex="1">
          <mxGeometry x="150" y="560" width="110" height="30" as="geometry" />
        </mxCell>
        <mxCell id="pgB8sEjVDIbPxb2HmiM6-230" value="Accounts" style="rounded=1;whiteSpace=wrap;html=1;" parent="1" vertex="1">
          <mxGeometry x="310" y="605" width="110" height="30" as="geometry" />
        </mxCell>
        <mxCell id="pgB8sEjVDIbPxb2HmiM6-231" value="Users" style="rounded=1;whiteSpace=wrap;html=1;" parent="1" vertex="1">
          <mxGeometry x="310" y="645" width="110" height="30" as="geometry" />
        </mxCell>
        <mxCell id="pgB8sEjVDIbPxb2HmiM6-232" value="Files" style="rounded=1;whiteSpace=wrap;html=1;" parent="1" vertex="1">
          <mxGeometry x="310" y="685" width="110" height="30" as="geometry" />
        </mxCell>
        <mxCell id="pgB8sEjVDIbPxb2HmiM6-236" style="edgeStyle=orthogonalEdgeStyle;rounded=0;orthogonalLoop=1;jettySize=auto;html=1;entryX=0;entryY=0.5;entryDx=0;entryDy=0;" parent="1" source="pgB8sEjVDIbPxb2HmiM6-233" target="pgB8sEjVDIbPxb2HmiM6-231" edge="1">
          <mxGeometry relative="1" as="geometry" />
        </mxCell>
        <mxCell id="pgB8sEjVDIbPxb2HmiM6-237" style="edgeStyle=orthogonalEdgeStyle;rounded=0;orthogonalLoop=1;jettySize=auto;html=1;entryX=0;entryY=0.5;entryDx=0;entryDy=0;" parent="1" source="pgB8sEjVDIbPxb2HmiM6-233" target="pgB8sEjVDIbPxb2HmiM6-230" edge="1">
          <mxGeometry relative="1" as="geometry" />
        </mxCell>
        <mxCell id="pgB8sEjVDIbPxb2HmiM6-238" style="edgeStyle=orthogonalEdgeStyle;rounded=0;orthogonalLoop=1;jettySize=auto;html=1;entryX=0;entryY=0.5;entryDx=0;entryDy=0;" parent="1" source="pgB8sEjVDIbPxb2HmiM6-233" target="pgB8sEjVDIbPxb2HmiM6-232" edge="1">
          <mxGeometry relative="1" as="geometry" />
        </mxCell>
        <mxCell id="Tok4MwXXM4k8-2Q5w1iH-3" style="edgeStyle=orthogonalEdgeStyle;rounded=0;orthogonalLoop=1;jettySize=auto;html=1;entryX=0;entryY=0.5;entryDx=0;entryDy=0;" parent="1" source="pgB8sEjVDIbPxb2HmiM6-233" target="Tok4MwXXM4k8-2Q5w1iH-2" edge="1">
          <mxGeometry relative="1" as="geometry" />
        </mxCell>
        <mxCell id="pgB8sEjVDIbPxb2HmiM6-233" value="SPE Member" style="rounded=1;whiteSpace=wrap;html=1;" parent="1" vertex="1">
          <mxGeometry x="150" y="665" width="110" height="30" as="geometry" />
        </mxCell>
        <mxCell id="pgB8sEjVDIbPxb2HmiM6-325" style="edgeStyle=orthogonalEdgeStyle;rounded=0;orthogonalLoop=1;jettySize=auto;html=1;entryX=0;entryY=0.5;entryDx=0;entryDy=0;" parent="1" source="pgB8sEjVDIbPxb2HmiM6-243" target="pgB8sEjVDIbPxb2HmiM6-322" edge="1">
          <mxGeometry relative="1" as="geometry" />
        </mxCell>
        <mxCell id="pgB8sEjVDIbPxb2HmiM6-326" style="edgeStyle=orthogonalEdgeStyle;rounded=0;orthogonalLoop=1;jettySize=auto;html=1;" parent="1" source="pgB8sEjVDIbPxb2HmiM6-243" target="pgB8sEjVDIbPxb2HmiM6-323" edge="1">
          <mxGeometry relative="1" as="geometry" />
        </mxCell>
        <mxCell id="pgB8sEjVDIbPxb2HmiM6-327" style="edgeStyle=orthogonalEdgeStyle;rounded=0;orthogonalLoop=1;jettySize=auto;html=1;entryX=0;entryY=0.5;entryDx=0;entryDy=0;" parent="1" source="pgB8sEjVDIbPxb2HmiM6-243" target="pgB8sEjVDIbPxb2HmiM6-324" edge="1">
          <mxGeometry relative="1" as="geometry" />
        </mxCell>
        <mxCell id="pgB8sEjVDIbPxb2HmiM6-243" value="SPE Blog" style="rounded=1;whiteSpace=wrap;html=1;" parent="1" vertex="1">
          <mxGeometry x="150" y="820" width="110" height="30" as="geometry" />
        </mxCell>
        <mxCell id="pgB8sEjVDIbPxb2HmiM6-247" value="Posts" style="shape=table;startSize=30;container=1;collapsible=1;childLayout=tableLayout;fixedRows=1;rowLines=0;fontStyle=1;align=center;resizeLast=1;" parent="1" vertex="1">
          <mxGeometry x="1200" y="220" width="180" height="280" as="geometry" />
        </mxCell>
        <mxCell id="pgB8sEjVDIbPxb2HmiM6-248" value="" style="shape=partialRectangle;collapsible=0;dropTarget=0;pointerEvents=0;fillColor=none;top=0;left=0;bottom=1;right=0;points=[[0,0.5],[1,0.5]];portConstraint=eastwest;" parent="pgB8sEjVDIbPxb2HmiM6-247" vertex="1">
          <mxGeometry y="30" width="180" height="30" as="geometry" />
        </mxCell>
        <mxCell id="pgB8sEjVDIbPxb2HmiM6-249" value="PK" style="shape=partialRectangle;connectable=0;fillColor=none;top=0;left=0;bottom=0;right=0;fontStyle=1;overflow=hidden;" parent="pgB8sEjVDIbPxb2HmiM6-248" vertex="1">
          <mxGeometry width="30" height="30" as="geometry" />
        </mxCell>
        <mxCell id="pgB8sEjVDIbPxb2HmiM6-250" value="id" style="shape=partialRectangle;connectable=0;fillColor=none;top=0;left=0;bottom=0;right=0;align=left;spacingLeft=6;fontStyle=5;overflow=hidden;" parent="pgB8sEjVDIbPxb2HmiM6-248" vertex="1">
          <mxGeometry x="30" width="150" height="30" as="geometry" />
        </mxCell>
        <mxCell id="pgB8sEjVDIbPxb2HmiM6-313" style="shape=partialRectangle;collapsible=0;dropTarget=0;pointerEvents=0;fillColor=none;top=0;left=0;bottom=0;right=0;points=[[0,0.5],[1,0.5]];portConstraint=eastwest;" parent="pgB8sEjVDIbPxb2HmiM6-247" vertex="1">
          <mxGeometry y="60" width="180" height="30" as="geometry" />
        </mxCell>
        <mxCell id="pgB8sEjVDIbPxb2HmiM6-314" style="shape=partialRectangle;connectable=0;fillColor=none;top=0;left=0;bottom=0;right=0;editable=1;overflow=hidden;" parent="pgB8sEjVDIbPxb2HmiM6-313" vertex="1">
          <mxGeometry width="30" height="30" as="geometry" />
        </mxCell>
        <mxCell id="pgB8sEjVDIbPxb2HmiM6-315" value="category_id" style="shape=partialRectangle;connectable=0;fillColor=none;top=0;left=0;bottom=0;right=0;align=left;spacingLeft=6;overflow=hidden;" parent="pgB8sEjVDIbPxb2HmiM6-313" vertex="1">
          <mxGeometry x="30" width="150" height="30" as="geometry" />
        </mxCell>
        <mxCell id="pgB8sEjVDIbPxb2HmiM6-316" style="shape=partialRectangle;collapsible=0;dropTarget=0;pointerEvents=0;fillColor=none;top=0;left=0;bottom=0;right=0;points=[[0,0.5],[1,0.5]];portConstraint=eastwest;" parent="pgB8sEjVDIbPxb2HmiM6-247" vertex="1">
          <mxGeometry y="90" width="180" height="30" as="geometry" />
        </mxCell>
        <mxCell id="pgB8sEjVDIbPxb2HmiM6-317" style="shape=partialRectangle;connectable=0;fillColor=none;top=0;left=0;bottom=0;right=0;editable=1;overflow=hidden;" parent="pgB8sEjVDIbPxb2HmiM6-316" vertex="1">
          <mxGeometry width="30" height="30" as="geometry" />
        </mxCell>
        <mxCell id="pgB8sEjVDIbPxb2HmiM6-318" value="tag_id" style="shape=partialRectangle;connectable=0;fillColor=none;top=0;left=0;bottom=0;right=0;align=left;spacingLeft=6;overflow=hidden;" parent="pgB8sEjVDIbPxb2HmiM6-316" vertex="1">
          <mxGeometry x="30" width="150" height="30" as="geometry" />
        </mxCell>
        <mxCell id="pgB8sEjVDIbPxb2HmiM6-251" value="" style="shape=partialRectangle;collapsible=0;dropTarget=0;pointerEvents=0;fillColor=none;top=0;left=0;bottom=0;right=0;points=[[0,0.5],[1,0.5]];portConstraint=eastwest;" parent="pgB8sEjVDIbPxb2HmiM6-247" vertex="1">
          <mxGeometry y="120" width="180" height="30" as="geometry" />
        </mxCell>
        <mxCell id="pgB8sEjVDIbPxb2HmiM6-252" value="" style="shape=partialRectangle;connectable=0;fillColor=none;top=0;left=0;bottom=0;right=0;editable=1;overflow=hidden;" parent="pgB8sEjVDIbPxb2HmiM6-251" vertex="1">
          <mxGeometry width="30" height="30" as="geometry" />
        </mxCell>
        <mxCell id="pgB8sEjVDIbPxb2HmiM6-253" value="title" style="shape=partialRectangle;connectable=0;fillColor=none;top=0;left=0;bottom=0;right=0;align=left;spacingLeft=6;overflow=hidden;" parent="pgB8sEjVDIbPxb2HmiM6-251" vertex="1">
          <mxGeometry x="30" width="150" height="30" as="geometry" />
        </mxCell>
        <mxCell id="pgB8sEjVDIbPxb2HmiM6-254" value="" style="shape=partialRectangle;collapsible=0;dropTarget=0;pointerEvents=0;fillColor=none;top=0;left=0;bottom=0;right=0;points=[[0,0.5],[1,0.5]];portConstraint=eastwest;" parent="pgB8sEjVDIbPxb2HmiM6-247" vertex="1">
          <mxGeometry y="150" width="180" height="30" as="geometry" />
        </mxCell>
        <mxCell id="pgB8sEjVDIbPxb2HmiM6-255" value="" style="shape=partialRectangle;connectable=0;fillColor=none;top=0;left=0;bottom=0;right=0;editable=1;overflow=hidden;" parent="pgB8sEjVDIbPxb2HmiM6-254" vertex="1">
          <mxGeometry width="30" height="30" as="geometry" />
        </mxCell>
        <mxCell id="pgB8sEjVDIbPxb2HmiM6-256" value="slug" style="shape=partialRectangle;connectable=0;fillColor=none;top=0;left=0;bottom=0;right=0;align=left;spacingLeft=6;overflow=hidden;" parent="pgB8sEjVDIbPxb2HmiM6-254" vertex="1">
          <mxGeometry x="30" width="150" height="30" as="geometry" />
        </mxCell>
        <mxCell id="pgB8sEjVDIbPxb2HmiM6-257" value="" style="shape=partialRectangle;collapsible=0;dropTarget=0;pointerEvents=0;fillColor=none;top=0;left=0;bottom=0;right=0;points=[[0,0.5],[1,0.5]];portConstraint=eastwest;" parent="pgB8sEjVDIbPxb2HmiM6-247" vertex="1">
          <mxGeometry y="180" width="180" height="30" as="geometry" />
        </mxCell>
        <mxCell id="pgB8sEjVDIbPxb2HmiM6-258" value="" style="shape=partialRectangle;connectable=0;fillColor=none;top=0;left=0;bottom=0;right=0;editable=1;overflow=hidden;" parent="pgB8sEjVDIbPxb2HmiM6-257" vertex="1">
          <mxGeometry width="30" height="30" as="geometry" />
        </mxCell>
        <mxCell id="pgB8sEjVDIbPxb2HmiM6-259" value="excerpt" style="shape=partialRectangle;connectable=0;fillColor=none;top=0;left=0;bottom=0;right=0;align=left;spacingLeft=6;overflow=hidden;" parent="pgB8sEjVDIbPxb2HmiM6-257" vertex="1">
          <mxGeometry x="30" width="150" height="30" as="geometry" />
        </mxCell>
        <mxCell id="pgB8sEjVDIbPxb2HmiM6-260" style="shape=partialRectangle;collapsible=0;dropTarget=0;pointerEvents=0;fillColor=none;top=0;left=0;bottom=0;right=0;points=[[0,0.5],[1,0.5]];portConstraint=eastwest;" parent="pgB8sEjVDIbPxb2HmiM6-247" vertex="1">
          <mxGeometry y="210" width="180" height="30" as="geometry" />
        </mxCell>
        <mxCell id="pgB8sEjVDIbPxb2HmiM6-261" style="shape=partialRectangle;connectable=0;fillColor=none;top=0;left=0;bottom=0;right=0;editable=1;overflow=hidden;" parent="pgB8sEjVDIbPxb2HmiM6-260" vertex="1">
          <mxGeometry width="30" height="30" as="geometry" />
        </mxCell>
        <mxCell id="pgB8sEjVDIbPxb2HmiM6-262" value="article" style="shape=partialRectangle;connectable=0;fillColor=none;top=0;left=0;bottom=0;right=0;align=left;spacingLeft=6;overflow=hidden;" parent="pgB8sEjVDIbPxb2HmiM6-260" vertex="1">
          <mxGeometry x="30" width="150" height="30" as="geometry" />
        </mxCell>
        <mxCell id="pgB8sEjVDIbPxb2HmiM6-263" style="shape=partialRectangle;collapsible=0;dropTarget=0;pointerEvents=0;fillColor=none;top=0;left=0;bottom=0;right=0;points=[[0,0.5],[1,0.5]];portConstraint=eastwest;" parent="pgB8sEjVDIbPxb2HmiM6-247" vertex="1">
          <mxGeometry y="240" width="180" height="30" as="geometry" />
        </mxCell>
        <mxCell id="pgB8sEjVDIbPxb2HmiM6-264" style="shape=partialRectangle;connectable=0;fillColor=none;top=0;left=0;bottom=0;right=0;editable=1;overflow=hidden;" parent="pgB8sEjVDIbPxb2HmiM6-263" vertex="1">
          <mxGeometry width="30" height="30" as="geometry" />
        </mxCell>
        <mxCell id="pgB8sEjVDIbPxb2HmiM6-265" value="publish_at" style="shape=partialRectangle;connectable=0;fillColor=none;top=0;left=0;bottom=0;right=0;align=left;spacingLeft=6;overflow=hidden;" parent="pgB8sEjVDIbPxb2HmiM6-263" vertex="1">
          <mxGeometry x="30" width="150" height="30" as="geometry" />
        </mxCell>
        <mxCell id="pgB8sEjVDIbPxb2HmiM6-272" value="Categories" style="shape=table;startSize=30;container=1;collapsible=1;childLayout=tableLayout;fixedRows=1;rowLines=0;fontStyle=1;align=center;resizeLast=1;" parent="1" vertex="1">
          <mxGeometry x="1440" y="220" width="180" height="130" as="geometry" />
        </mxCell>
        <mxCell id="pgB8sEjVDIbPxb2HmiM6-273" value="" style="shape=partialRectangle;collapsible=0;dropTarget=0;pointerEvents=0;fillColor=none;top=0;left=0;bottom=1;right=0;points=[[0,0.5],[1,0.5]];portConstraint=eastwest;" parent="pgB8sEjVDIbPxb2HmiM6-272" vertex="1">
          <mxGeometry y="30" width="180" height="30" as="geometry" />
        </mxCell>
        <mxCell id="pgB8sEjVDIbPxb2HmiM6-274" value="PK" style="shape=partialRectangle;connectable=0;fillColor=none;top=0;left=0;bottom=0;right=0;fontStyle=1;overflow=hidden;" parent="pgB8sEjVDIbPxb2HmiM6-273" vertex="1">
          <mxGeometry width="30" height="30" as="geometry" />
        </mxCell>
        <mxCell id="pgB8sEjVDIbPxb2HmiM6-275" value="id" style="shape=partialRectangle;connectable=0;fillColor=none;top=0;left=0;bottom=0;right=0;align=left;spacingLeft=6;fontStyle=5;overflow=hidden;" parent="pgB8sEjVDIbPxb2HmiM6-273" vertex="1">
          <mxGeometry x="30" width="150" height="30" as="geometry" />
        </mxCell>
        <mxCell id="pgB8sEjVDIbPxb2HmiM6-276" value="" style="shape=partialRectangle;collapsible=0;dropTarget=0;pointerEvents=0;fillColor=none;top=0;left=0;bottom=0;right=0;points=[[0,0.5],[1,0.5]];portConstraint=eastwest;" parent="pgB8sEjVDIbPxb2HmiM6-272" vertex="1">
          <mxGeometry y="60" width="180" height="30" as="geometry" />
        </mxCell>
        <mxCell id="pgB8sEjVDIbPxb2HmiM6-277" value="" style="shape=partialRectangle;connectable=0;fillColor=none;top=0;left=0;bottom=0;right=0;editable=1;overflow=hidden;" parent="pgB8sEjVDIbPxb2HmiM6-276" vertex="1">
          <mxGeometry width="30" height="30" as="geometry" />
        </mxCell>
        <mxCell id="pgB8sEjVDIbPxb2HmiM6-278" value="name" style="shape=partialRectangle;connectable=0;fillColor=none;top=0;left=0;bottom=0;right=0;align=left;spacingLeft=6;overflow=hidden;" parent="pgB8sEjVDIbPxb2HmiM6-276" vertex="1">
          <mxGeometry x="30" width="150" height="30" as="geometry" />
        </mxCell>
        <mxCell id="pgB8sEjVDIbPxb2HmiM6-279" value="" style="shape=partialRectangle;collapsible=0;dropTarget=0;pointerEvents=0;fillColor=none;top=0;left=0;bottom=0;right=0;points=[[0,0.5],[1,0.5]];portConstraint=eastwest;" parent="pgB8sEjVDIbPxb2HmiM6-272" vertex="1">
          <mxGeometry y="90" width="180" height="30" as="geometry" />
        </mxCell>
        <mxCell id="pgB8sEjVDIbPxb2HmiM6-280" value="" style="shape=partialRectangle;connectable=0;fillColor=none;top=0;left=0;bottom=0;right=0;editable=1;overflow=hidden;" parent="pgB8sEjVDIbPxb2HmiM6-279" vertex="1">
          <mxGeometry width="30" height="30" as="geometry" />
        </mxCell>
        <mxCell id="pgB8sEjVDIbPxb2HmiM6-281" value="slug" style="shape=partialRectangle;connectable=0;fillColor=none;top=0;left=0;bottom=0;right=0;align=left;spacingLeft=6;overflow=hidden;" parent="pgB8sEjVDIbPxb2HmiM6-279" vertex="1">
          <mxGeometry x="30" width="150" height="30" as="geometry" />
        </mxCell>
        <mxCell id="pgB8sEjVDIbPxb2HmiM6-297" value="Tags" style="shape=table;startSize=30;container=1;collapsible=1;childLayout=tableLayout;fixedRows=1;rowLines=0;fontStyle=1;align=center;resizeLast=1;" parent="1" vertex="1">
          <mxGeometry x="1440" y="370" width="180" height="130" as="geometry" />
        </mxCell>
        <mxCell id="pgB8sEjVDIbPxb2HmiM6-298" value="" style="shape=partialRectangle;collapsible=0;dropTarget=0;pointerEvents=0;fillColor=none;top=0;left=0;bottom=1;right=0;points=[[0,0.5],[1,0.5]];portConstraint=eastwest;" parent="pgB8sEjVDIbPxb2HmiM6-297" vertex="1">
          <mxGeometry y="30" width="180" height="30" as="geometry" />
        </mxCell>
        <mxCell id="pgB8sEjVDIbPxb2HmiM6-299" value="PK" style="shape=partialRectangle;connectable=0;fillColor=none;top=0;left=0;bottom=0;right=0;fontStyle=1;overflow=hidden;" parent="pgB8sEjVDIbPxb2HmiM6-298" vertex="1">
          <mxGeometry width="30" height="30" as="geometry" />
        </mxCell>
        <mxCell id="pgB8sEjVDIbPxb2HmiM6-300" value="id" style="shape=partialRectangle;connectable=0;fillColor=none;top=0;left=0;bottom=0;right=0;align=left;spacingLeft=6;fontStyle=5;overflow=hidden;" parent="pgB8sEjVDIbPxb2HmiM6-298" vertex="1">
          <mxGeometry x="30" width="150" height="30" as="geometry" />
        </mxCell>
        <mxCell id="pgB8sEjVDIbPxb2HmiM6-301" value="" style="shape=partialRectangle;collapsible=0;dropTarget=0;pointerEvents=0;fillColor=none;top=0;left=0;bottom=0;right=0;points=[[0,0.5],[1,0.5]];portConstraint=eastwest;" parent="pgB8sEjVDIbPxb2HmiM6-297" vertex="1">
          <mxGeometry y="60" width="180" height="30" as="geometry" />
        </mxCell>
        <mxCell id="pgB8sEjVDIbPxb2HmiM6-302" value="" style="shape=partialRectangle;connectable=0;fillColor=none;top=0;left=0;bottom=0;right=0;editable=1;overflow=hidden;" parent="pgB8sEjVDIbPxb2HmiM6-301" vertex="1">
          <mxGeometry width="30" height="30" as="geometry" />
        </mxCell>
        <mxCell id="pgB8sEjVDIbPxb2HmiM6-303" value="name" style="shape=partialRectangle;connectable=0;fillColor=none;top=0;left=0;bottom=0;right=0;align=left;spacingLeft=6;overflow=hidden;" parent="pgB8sEjVDIbPxb2HmiM6-301" vertex="1">
          <mxGeometry x="30" width="150" height="30" as="geometry" />
        </mxCell>
        <mxCell id="pgB8sEjVDIbPxb2HmiM6-304" value="" style="shape=partialRectangle;collapsible=0;dropTarget=0;pointerEvents=0;fillColor=none;top=0;left=0;bottom=0;right=0;points=[[0,0.5],[1,0.5]];portConstraint=eastwest;" parent="pgB8sEjVDIbPxb2HmiM6-297" vertex="1">
          <mxGeometry y="90" width="180" height="30" as="geometry" />
        </mxCell>
        <mxCell id="pgB8sEjVDIbPxb2HmiM6-305" value="" style="shape=partialRectangle;connectable=0;fillColor=none;top=0;left=0;bottom=0;right=0;editable=1;overflow=hidden;" parent="pgB8sEjVDIbPxb2HmiM6-304" vertex="1">
          <mxGeometry width="30" height="30" as="geometry" />
        </mxCell>
        <mxCell id="pgB8sEjVDIbPxb2HmiM6-306" value="slug" style="shape=partialRectangle;connectable=0;fillColor=none;top=0;left=0;bottom=0;right=0;align=left;spacingLeft=6;overflow=hidden;" parent="pgB8sEjVDIbPxb2HmiM6-304" vertex="1">
          <mxGeometry x="30" width="150" height="30" as="geometry" />
        </mxCell>
        <mxCell id="pgB8sEjVDIbPxb2HmiM6-319" value="" style="edgeStyle=entityRelationEdgeStyle;fontSize=12;html=1;endArrow=ERmandOne;startArrow=ERmandOne;" parent="1" source="pgB8sEjVDIbPxb2HmiM6-247" target="pgB8sEjVDIbPxb2HmiM6-272" edge="1">
          <mxGeometry width="100" height="100" relative="1" as="geometry">
            <mxPoint x="1400" y="410" as="sourcePoint" />
            <mxPoint x="1500" y="310" as="targetPoint" />
          </mxGeometry>
        </mxCell>
        <mxCell id="pgB8sEjVDIbPxb2HmiM6-320" value="" style="edgeStyle=entityRelationEdgeStyle;fontSize=12;html=1;endArrow=ERzeroToMany;startArrow=ERmandOne;" parent="1" source="pgB8sEjVDIbPxb2HmiM6-247" target="pgB8sEjVDIbPxb2HmiM6-297" edge="1">
          <mxGeometry width="100" height="100" relative="1" as="geometry">
            <mxPoint x="1400" y="410" as="sourcePoint" />
            <mxPoint x="1500" y="310" as="targetPoint" />
          </mxGeometry>
        </mxCell>
        <mxCell id="pgB8sEjVDIbPxb2HmiM6-322" value="Posts" style="rounded=1;whiteSpace=wrap;html=1;" parent="1" vertex="1">
          <mxGeometry x="310" y="780" width="110" height="30" as="geometry" />
        </mxCell>
        <mxCell id="pgB8sEjVDIbPxb2HmiM6-323" value="Categories" style="rounded=1;whiteSpace=wrap;html=1;" parent="1" vertex="1">
          <mxGeometry x="310" y="820" width="110" height="30" as="geometry" />
        </mxCell>
        <mxCell id="pgB8sEjVDIbPxb2HmiM6-324" value="Tags" style="rounded=1;whiteSpace=wrap;html=1;" parent="1" vertex="1">
          <mxGeometry x="310" y="860" width="110" height="30" as="geometry" />
        </mxCell>
        <mxCell id="Tok4MwXXM4k8-2Q5w1iH-2" value="Points" style="rounded=1;whiteSpace=wrap;html=1;" parent="1" vertex="1">
          <mxGeometry x="310" y="723" width="110" height="30" as="geometry" />
        </mxCell>
        <mxCell id="Tok4MwXXM4k8-2Q5w1iH-4" value="Points" style="shape=table;startSize=30;container=1;collapsible=1;childLayout=tableLayout;fixedRows=1;rowLines=0;fontStyle=1;align=center;resizeLast=1;" parent="1" vertex="1">
          <mxGeometry x="1410" y="-250" width="210" height="130" as="geometry" />
        </mxCell>
        <mxCell id="Tok4MwXXM4k8-2Q5w1iH-5" value="" style="shape=partialRectangle;collapsible=0;dropTarget=0;pointerEvents=0;fillColor=none;top=0;left=0;bottom=1;right=0;points=[[0,0.5],[1,0.5]];portConstraint=eastwest;" parent="Tok4MwXXM4k8-2Q5w1iH-4" vertex="1">
          <mxGeometry y="30" width="210" height="30" as="geometry" />
        </mxCell>
        <mxCell id="Tok4MwXXM4k8-2Q5w1iH-6" value="PK" style="shape=partialRectangle;connectable=0;fillColor=none;top=0;left=0;bottom=0;right=0;fontStyle=1;overflow=hidden;" parent="Tok4MwXXM4k8-2Q5w1iH-5" vertex="1">
          <mxGeometry width="30" height="30" as="geometry" />
        </mxCell>
        <mxCell id="Tok4MwXXM4k8-2Q5w1iH-7" value="id" style="shape=partialRectangle;connectable=0;fillColor=none;top=0;left=0;bottom=0;right=0;align=left;spacingLeft=6;fontStyle=5;overflow=hidden;" parent="Tok4MwXXM4k8-2Q5w1iH-5" vertex="1">
          <mxGeometry x="30" width="90" height="30" as="geometry" />
        </mxCell>
        <mxCell id="Tok4MwXXM4k8-2Q5w1iH-17" value="unique" style="shape=partialRectangle;connectable=0;fillColor=none;top=0;left=0;bottom=0;right=0;align=left;spacingLeft=6;fontStyle=5;overflow=hidden;" parent="Tok4MwXXM4k8-2Q5w1iH-5" vertex="1">
          <mxGeometry x="120" width="90" height="30" as="geometry" />
        </mxCell>
        <mxCell id="Tok4MwXXM4k8-2Q5w1iH-8" value="" style="shape=partialRectangle;collapsible=0;dropTarget=0;pointerEvents=0;fillColor=none;top=0;left=0;bottom=0;right=0;points=[[0,0.5],[1,0.5]];portConstraint=eastwest;" parent="Tok4MwXXM4k8-2Q5w1iH-4" vertex="1">
          <mxGeometry y="60" width="210" height="30" as="geometry" />
        </mxCell>
        <mxCell id="Tok4MwXXM4k8-2Q5w1iH-9" value="FK" style="shape=partialRectangle;connectable=0;fillColor=none;top=0;left=0;bottom=0;right=0;editable=1;overflow=hidden;" parent="Tok4MwXXM4k8-2Q5w1iH-8" vertex="1">
          <mxGeometry width="30" height="30" as="geometry" />
        </mxCell>
        <mxCell id="Tok4MwXXM4k8-2Q5w1iH-10" value="user_id" style="shape=partialRectangle;connectable=0;fillColor=none;top=0;left=0;bottom=0;right=0;align=left;spacingLeft=6;overflow=hidden;" parent="Tok4MwXXM4k8-2Q5w1iH-8" vertex="1">
          <mxGeometry x="30" width="90" height="30" as="geometry" />
        </mxCell>
        <mxCell id="Tok4MwXXM4k8-2Q5w1iH-18" style="shape=partialRectangle;connectable=0;fillColor=none;top=0;left=0;bottom=0;right=0;align=left;spacingLeft=6;overflow=hidden;" parent="Tok4MwXXM4k8-2Q5w1iH-8" vertex="1">
          <mxGeometry x="120" width="90" height="30" as="geometry" />
        </mxCell>
        <mxCell id="Tok4MwXXM4k8-2Q5w1iH-11" value="" style="shape=partialRectangle;collapsible=0;dropTarget=0;pointerEvents=0;fillColor=none;top=0;left=0;bottom=0;right=0;points=[[0,0.5],[1,0.5]];portConstraint=eastwest;" parent="Tok4MwXXM4k8-2Q5w1iH-4" vertex="1">
          <mxGeometry y="90" width="210" height="30" as="geometry" />
        </mxCell>
        <mxCell id="Tok4MwXXM4k8-2Q5w1iH-12" value="" style="shape=partialRectangle;connectable=0;fillColor=none;top=0;left=0;bottom=0;right=0;editable=1;overflow=hidden;" parent="Tok4MwXXM4k8-2Q5w1iH-11" vertex="1">
          <mxGeometry width="30" height="30" as="geometry" />
        </mxCell>
        <mxCell id="Tok4MwXXM4k8-2Q5w1iH-13" value="point" style="shape=partialRectangle;connectable=0;fillColor=none;top=0;left=0;bottom=0;right=0;align=left;spacingLeft=6;overflow=hidden;" parent="Tok4MwXXM4k8-2Q5w1iH-11" vertex="1">
          <mxGeometry x="30" width="90" height="30" as="geometry" />
        </mxCell>
        <mxCell id="Tok4MwXXM4k8-2Q5w1iH-19" value="int" style="shape=partialRectangle;connectable=0;fillColor=none;top=0;left=0;bottom=0;right=0;align=left;spacingLeft=6;overflow=hidden;" parent="Tok4MwXXM4k8-2Q5w1iH-11" vertex="1">
          <mxGeometry x="120" width="90" height="30" as="geometry" />
        </mxCell>
        <mxCell id="9JKyh7mim-rZq6fSw8CH-41" value="Shortlinks" style="shape=table;startSize=30;container=1;collapsible=1;childLayout=tableLayout;fixedRows=1;rowLines=0;fontStyle=1;align=center;resizeLast=1;" vertex="1" parent="1">
          <mxGeometry x="1410" y="-90" width="210" height="280" as="geometry" />
        </mxCell>
        <mxCell id="9JKyh7mim-rZq6fSw8CH-42" value="" style="shape=partialRectangle;collapsible=0;dropTarget=0;pointerEvents=0;fillColor=none;top=0;left=0;bottom=1;right=0;points=[[0,0.5],[1,0.5]];portConstraint=eastwest;" vertex="1" parent="9JKyh7mim-rZq6fSw8CH-41">
          <mxGeometry y="30" width="210" height="30" as="geometry" />
        </mxCell>
        <mxCell id="9JKyh7mim-rZq6fSw8CH-43" value="PK" style="shape=partialRectangle;connectable=0;fillColor=none;top=0;left=0;bottom=0;right=0;fontStyle=1;overflow=hidden;" vertex="1" parent="9JKyh7mim-rZq6fSw8CH-42">
          <mxGeometry width="30" height="30" as="geometry" />
        </mxCell>
        <mxCell id="9JKyh7mim-rZq6fSw8CH-44" value="id" style="shape=partialRectangle;connectable=0;fillColor=none;top=0;left=0;bottom=0;right=0;align=left;spacingLeft=6;fontStyle=5;overflow=hidden;" vertex="1" parent="9JKyh7mim-rZq6fSw8CH-42">
          <mxGeometry x="30" width="90" height="30" as="geometry" />
        </mxCell>
        <mxCell id="9JKyh7mim-rZq6fSw8CH-54" value="unique" style="shape=partialRectangle;connectable=0;fillColor=none;top=0;left=0;bottom=0;right=0;align=left;spacingLeft=6;fontStyle=5;overflow=hidden;" vertex="1" parent="9JKyh7mim-rZq6fSw8CH-42">
          <mxGeometry x="120" width="90" height="30" as="geometry" />
        </mxCell>
        <mxCell id="9JKyh7mim-rZq6fSw8CH-45" value="" style="shape=partialRectangle;collapsible=0;dropTarget=0;pointerEvents=0;fillColor=none;top=0;left=0;bottom=0;right=0;points=[[0,0.5],[1,0.5]];portConstraint=eastwest;" vertex="1" parent="9JKyh7mim-rZq6fSw8CH-41">
          <mxGeometry y="60" width="210" height="30" as="geometry" />
        </mxCell>
        <mxCell id="9JKyh7mim-rZq6fSw8CH-46" value="FK" style="shape=partialRectangle;connectable=0;fillColor=none;top=0;left=0;bottom=0;right=0;editable=1;overflow=hidden;" vertex="1" parent="9JKyh7mim-rZq6fSw8CH-45">
          <mxGeometry width="30" height="30" as="geometry" />
        </mxCell>
        <mxCell id="9JKyh7mim-rZq6fSw8CH-47" value="user_id" style="shape=partialRectangle;connectable=0;fillColor=none;top=0;left=0;bottom=0;right=0;align=left;spacingLeft=6;overflow=hidden;" vertex="1" parent="9JKyh7mim-rZq6fSw8CH-45">
          <mxGeometry x="30" width="90" height="30" as="geometry" />
        </mxCell>
        <mxCell id="9JKyh7mim-rZq6fSw8CH-55" style="shape=partialRectangle;connectable=0;fillColor=none;top=0;left=0;bottom=0;right=0;align=left;spacingLeft=6;overflow=hidden;" vertex="1" parent="9JKyh7mim-rZq6fSw8CH-45">
          <mxGeometry x="120" width="90" height="30" as="geometry" />
        </mxCell>
        <mxCell id="9JKyh7mim-rZq6fSw8CH-48" value="" style="shape=partialRectangle;collapsible=0;dropTarget=0;pointerEvents=0;fillColor=none;top=0;left=0;bottom=0;right=0;points=[[0,0.5],[1,0.5]];portConstraint=eastwest;" vertex="1" parent="9JKyh7mim-rZq6fSw8CH-41">
          <mxGeometry y="90" width="210" height="30" as="geometry" />
        </mxCell>
        <mxCell id="9JKyh7mim-rZq6fSw8CH-49" value="" style="shape=partialRectangle;connectable=0;fillColor=none;top=0;left=0;bottom=0;right=0;editable=1;overflow=hidden;" vertex="1" parent="9JKyh7mim-rZq6fSw8CH-48">
          <mxGeometry width="30" height="30" as="geometry" />
        </mxCell>
        <mxCell id="9JKyh7mim-rZq6fSw8CH-50" value="name" style="shape=partialRectangle;connectable=0;fillColor=none;top=0;left=0;bottom=0;right=0;align=left;spacingLeft=6;overflow=hidden;" vertex="1" parent="9JKyh7mim-rZq6fSw8CH-48">
          <mxGeometry x="30" width="90" height="30" as="geometry" />
        </mxCell>
        <mxCell id="9JKyh7mim-rZq6fSw8CH-56" style="shape=partialRectangle;connectable=0;fillColor=none;top=0;left=0;bottom=0;right=0;align=left;spacingLeft=6;overflow=hidden;" vertex="1" parent="9JKyh7mim-rZq6fSw8CH-48">
          <mxGeometry x="120" width="90" height="30" as="geometry" />
        </mxCell>
        <mxCell id="9JKyh7mim-rZq6fSw8CH-51" value="" style="shape=partialRectangle;collapsible=0;dropTarget=0;pointerEvents=0;fillColor=none;top=0;left=0;bottom=0;right=0;points=[[0,0.5],[1,0.5]];portConstraint=eastwest;" vertex="1" parent="9JKyh7mim-rZq6fSw8CH-41">
          <mxGeometry y="120" width="210" height="30" as="geometry" />
        </mxCell>
        <mxCell id="9JKyh7mim-rZq6fSw8CH-52" value="" style="shape=partialRectangle;connectable=0;fillColor=none;top=0;left=0;bottom=0;right=0;editable=1;overflow=hidden;" vertex="1" parent="9JKyh7mim-rZq6fSw8CH-51">
          <mxGeometry width="30" height="30" as="geometry" />
        </mxCell>
        <mxCell id="9JKyh7mim-rZq6fSw8CH-53" value="short" style="shape=partialRectangle;connectable=0;fillColor=none;top=0;left=0;bottom=0;right=0;align=left;spacingLeft=6;overflow=hidden;" vertex="1" parent="9JKyh7mim-rZq6fSw8CH-51">
          <mxGeometry x="30" width="90" height="30" as="geometry" />
        </mxCell>
        <mxCell id="9JKyh7mim-rZq6fSw8CH-57" value="unique" style="shape=partialRectangle;connectable=0;fillColor=none;top=0;left=0;bottom=0;right=0;align=left;spacingLeft=6;overflow=hidden;" vertex="1" parent="9JKyh7mim-rZq6fSw8CH-51">
          <mxGeometry x="120" width="90" height="30" as="geometry" />
        </mxCell>
        <mxCell id="9JKyh7mim-rZq6fSw8CH-70" style="shape=partialRectangle;collapsible=0;dropTarget=0;pointerEvents=0;fillColor=none;top=0;left=0;bottom=0;right=0;points=[[0,0.5],[1,0.5]];portConstraint=eastwest;" vertex="1" parent="9JKyh7mim-rZq6fSw8CH-41">
          <mxGeometry y="150" width="210" height="30" as="geometry" />
        </mxCell>
        <mxCell id="9JKyh7mim-rZq6fSw8CH-71" style="shape=partialRectangle;connectable=0;fillColor=none;top=0;left=0;bottom=0;right=0;editable=1;overflow=hidden;" vertex="1" parent="9JKyh7mim-rZq6fSw8CH-70">
          <mxGeometry width="30" height="30" as="geometry" />
        </mxCell>
        <mxCell id="9JKyh7mim-rZq6fSw8CH-72" value="original" style="shape=partialRectangle;connectable=0;fillColor=none;top=0;left=0;bottom=0;right=0;align=left;spacingLeft=6;overflow=hidden;" vertex="1" parent="9JKyh7mim-rZq6fSw8CH-70">
          <mxGeometry x="30" width="90" height="30" as="geometry" />
        </mxCell>
        <mxCell id="9JKyh7mim-rZq6fSw8CH-73" style="shape=partialRectangle;connectable=0;fillColor=none;top=0;left=0;bottom=0;right=0;align=left;spacingLeft=6;overflow=hidden;" vertex="1" parent="9JKyh7mim-rZq6fSw8CH-70">
          <mxGeometry x="120" width="90" height="30" as="geometry" />
        </mxCell>
        <mxCell id="9JKyh7mim-rZq6fSw8CH-66" style="shape=partialRectangle;collapsible=0;dropTarget=0;pointerEvents=0;fillColor=none;top=0;left=0;bottom=0;right=0;points=[[0,0.5],[1,0.5]];portConstraint=eastwest;" vertex="1" parent="9JKyh7mim-rZq6fSw8CH-41">
          <mxGeometry y="180" width="210" height="30" as="geometry" />
        </mxCell>
        <mxCell id="9JKyh7mim-rZq6fSw8CH-67" style="shape=partialRectangle;connectable=0;fillColor=none;top=0;left=0;bottom=0;right=0;editable=1;overflow=hidden;" vertex="1" parent="9JKyh7mim-rZq6fSw8CH-66">
          <mxGeometry width="30" height="30" as="geometry" />
        </mxCell>
        <mxCell id="9JKyh7mim-rZq6fSw8CH-68" value="visited" style="shape=partialRectangle;connectable=0;fillColor=none;top=0;left=0;bottom=0;right=0;align=left;spacingLeft=6;overflow=hidden;" vertex="1" parent="9JKyh7mim-rZq6fSw8CH-66">
          <mxGeometry x="30" width="90" height="30" as="geometry" />
        </mxCell>
        <mxCell id="9JKyh7mim-rZq6fSw8CH-69" value="int" style="shape=partialRectangle;connectable=0;fillColor=none;top=0;left=0;bottom=0;right=0;align=left;spacingLeft=6;overflow=hidden;" vertex="1" parent="9JKyh7mim-rZq6fSw8CH-66">
          <mxGeometry x="120" width="90" height="30" as="geometry" />
        </mxCell>
        <mxCell id="9JKyh7mim-rZq6fSw8CH-62" style="shape=partialRectangle;collapsible=0;dropTarget=0;pointerEvents=0;fillColor=none;top=0;left=0;bottom=0;right=0;points=[[0,0.5],[1,0.5]];portConstraint=eastwest;" vertex="1" parent="9JKyh7mim-rZq6fSw8CH-41">
          <mxGeometry y="210" width="210" height="30" as="geometry" />
        </mxCell>
        <mxCell id="9JKyh7mim-rZq6fSw8CH-63" style="shape=partialRectangle;connectable=0;fillColor=none;top=0;left=0;bottom=0;right=0;editable=1;overflow=hidden;" vertex="1" parent="9JKyh7mim-rZq6fSw8CH-62">
          <mxGeometry width="30" height="30" as="geometry" />
        </mxCell>
        <mxCell id="9JKyh7mim-rZq6fSw8CH-64" value="created_at" style="shape=partialRectangle;connectable=0;fillColor=none;top=0;left=0;bottom=0;right=0;align=left;spacingLeft=6;overflow=hidden;" vertex="1" parent="9JKyh7mim-rZq6fSw8CH-62">
          <mxGeometry x="30" width="90" height="30" as="geometry" />
        </mxCell>
        <mxCell id="9JKyh7mim-rZq6fSw8CH-65" style="shape=partialRectangle;connectable=0;fillColor=none;top=0;left=0;bottom=0;right=0;align=left;spacingLeft=6;overflow=hidden;" vertex="1" parent="9JKyh7mim-rZq6fSw8CH-62">
          <mxGeometry x="120" width="90" height="30" as="geometry" />
        </mxCell>
        <mxCell id="9JKyh7mim-rZq6fSw8CH-58" style="shape=partialRectangle;collapsible=0;dropTarget=0;pointerEvents=0;fillColor=none;top=0;left=0;bottom=0;right=0;points=[[0,0.5],[1,0.5]];portConstraint=eastwest;" vertex="1" parent="9JKyh7mim-rZq6fSw8CH-41">
          <mxGeometry y="240" width="210" height="30" as="geometry" />
        </mxCell>
        <mxCell id="9JKyh7mim-rZq6fSw8CH-59" style="shape=partialRectangle;connectable=0;fillColor=none;top=0;left=0;bottom=0;right=0;editable=1;overflow=hidden;" vertex="1" parent="9JKyh7mim-rZq6fSw8CH-58">
          <mxGeometry width="30" height="30" as="geometry" />
        </mxCell>
        <mxCell id="9JKyh7mim-rZq6fSw8CH-60" value="updated_at" style="shape=partialRectangle;connectable=0;fillColor=none;top=0;left=0;bottom=0;right=0;align=left;spacingLeft=6;overflow=hidden;" vertex="1" parent="9JKyh7mim-rZq6fSw8CH-58">
          <mxGeometry x="30" width="90" height="30" as="geometry" />
        </mxCell>
        <mxCell id="9JKyh7mim-rZq6fSw8CH-61" style="shape=partialRectangle;connectable=0;fillColor=none;top=0;left=0;bottom=0;right=0;align=left;spacingLeft=6;overflow=hidden;" vertex="1" parent="9JKyh7mim-rZq6fSw8CH-58">
          <mxGeometry x="120" width="90" height="30" as="geometry" />
        </mxCell>
        <mxCell id="9JKyh7mim-rZq6fSw8CH-74" value="" style="edgeStyle=entityRelationEdgeStyle;fontSize=12;html=1;endArrow=ERmandOne;startArrow=ERmandOne;" edge="1" parent="1" source="pgB8sEjVDIbPxb2HmiM6-150" target="pgB8sEjVDIbPxb2HmiM6-128">
          <mxGeometry width="100" height="100" relative="1" as="geometry">
            <mxPoint x="1080" y="-170" as="sourcePoint" />
            <mxPoint x="1180" y="-270" as="targetPoint" />
          </mxGeometry>
        </mxCell>
        <mxCell id="9JKyh7mim-rZq6fSw8CH-75" value="" style="edgeStyle=entityRelationEdgeStyle;fontSize=12;html=1;endArrow=ERmandOne;startArrow=ERmandOne;" edge="1" parent="1" source="pgB8sEjVDIbPxb2HmiM6-196" target="pgB8sEjVDIbPxb2HmiM6-128">
          <mxGeometry width="100" height="100" relative="1" as="geometry">
            <mxPoint x="1045" y="-320" as="sourcePoint" />
            <mxPoint x="1110" y="-350" as="targetPoint" />
          </mxGeometry>
        </mxCell>
        <mxCell id="9JKyh7mim-rZq6fSw8CH-76" value="" style="edgeStyle=entityRelationEdgeStyle;fontSize=12;html=1;endArrow=ERmandOne;startArrow=ERmandOne;" edge="1" parent="1" source="pgB8sEjVDIbPxb2HmiM6-128" target="Tok4MwXXM4k8-2Q5w1iH-4">
          <mxGeometry width="100" height="100" relative="1" as="geometry">
            <mxPoint x="1420" y="-395" as="sourcePoint" />
            <mxPoint x="1350" y="-350" as="targetPoint" />
          </mxGeometry>
        </mxCell>
        <mxCell id="9JKyh7mim-rZq6fSw8CH-79" value="" style="edgeStyle=entityRelationEdgeStyle;fontSize=12;html=1;endArrow=ERzeroToMany;startArrow=ERmandOne;" edge="1" parent="1" source="pgB8sEjVDIbPxb2HmiM6-128" target="9JKyh7mim-rZq6fSw8CH-41">
          <mxGeometry width="100" height="100" relative="1" as="geometry">
            <mxPoint x="1080" y="-170" as="sourcePoint" />
            <mxPoint x="1180" y="-270" as="targetPoint" />
          </mxGeometry>
        </mxCell>
      </root>
    </mxGraphModel>
  </diagram>
</mxfile>
